<svg viewBox="0 0 330 200" xmlns="http://www.w3.org/2000/svg"><g><g><g><g><g><line x1="72.34375" y1="177" x2="67.34375" y2="177" style="visibility: inherit;" fill="rgb(0, 0, 0)" stroke="rgb(204, 204, 204)" stroke-width="1px"></line><line x1="72.34375" y1="164.35714285714283" x2="67.34375" y2="164.35714285714283" style="visibility: inherit;" fill="rgb(0, 0, 0)" stroke="rgb(204, 204, 204)" stroke-width="1px"></line><line x1="72.34375" y1="151.71428571428572" x2="67.34375" y2="151.71428571428572" style="visibility: inherit;" fill="rgb(0, 0, 0)" stroke="rgb(204, 204, 204)" stroke-width="1px"></line><line x1="72.34375" y1="139.07142857142856" x2="67.34375" y2="139.07142857142856" style="visibility: inherit;" fill="rgb(0, 0, 0)" stroke="rgb(204, 204, 204)" stroke-width="1px"></line><line x1="72.34375" y1="126.42857142857143" x2="67.34375" y2="126.42857142857143" style="visibility: inherit;" fill="rgb(0, 0, 0)" stroke="rgb(204, 204, 204)" stroke-width="1px"></line><line x1="72.34375" y1="113.78571428571432" x2="67.34375" y2="113.78571428571432" style="visibility: inherit;" fill="rgb(0, 0, 0)" stroke="rgb(204, 204, 204)" stroke-width="1px"></line><line x1="72.34375" y1="101.14285714285714" x2="67.34375" y2="101.14285714285714" style="visibility: inherit;" fill="rgb(0, 0, 0)" stroke="rgb(204, 204, 204)" stroke-width="1px"></line><line x1="72.34375" y1="88.5" x2="67.34375" y2="88.5" style="visibility: inherit;" fill="rgb(0, 0, 0)" stroke="rgb(204, 204, 204)" stroke-width="1px"></line><line x1="72.34375" y1="75.85714285714285" x2="67.34375" y2="75.85714285714285" style="visibility: inherit;" fill="rgb(0, 0, 0)" stroke="rgb(204, 204, 204)" stroke-width="1px"></line><line x1="72.34375" y1="63.21428571428572" x2="67.34375" y2="63.21428571428572" style="visibility: inherit;" fill="rgb(0, 0, 0)" stroke="rgb(204, 204, 204)" stroke-width="1px"></line><line x1="72.34375" y1="50.57142857142859" x2="67.34375" y2="50.57142857142859" style="visibility: inherit;" fill="rgb(0, 0, 0)" stroke="rgb(204, 204, 204)" stroke-width="1px"></line><line x1="72.34375" y1="37.92857142857141" x2="67.34375" y2="37.92857142857141" style="visibility: inherit;" fill="rgb(0, 0, 0)" stroke="rgb(204, 204, 204)" stroke-width="1px"></line><line x1="72.34375" y1="25.285714285714295" x2="67.34375" y2="25.285714285714295" style="visibility: inherit;" fill="rgb(0, 0, 0)" stroke="rgb(204, 204, 204)" stroke-width="1px"></line><line x1="72.34375" y1="12.642857142857117" x2="67.34375" y2="12.642857142857117" style="visibility: inherit;" fill="rgb(0, 0, 0)" stroke="rgb(204, 204, 204)" stroke-width="1px"></line><line x1="72.34375" y1="0" x2="67.34375" y2="0" style="visibility: inherit;" fill="rgb(0, 0, 0)" stroke="rgb(204, 204, 204)" stroke-width="1px"></line></g><g transform="translate(62.34375, 0)"><text x="0" y="177" dx="0em" dy="0.3em" style="text-anchor: end; visibility: hidden; font-family: Roboto, sans-serif; font-size: 12px; font-weight: 200;" fill="rgb(33, 33, 33)" stroke="none" stroke-width="1px">3.8e-3</text><text x="0" y="164.35714285714283" dx="0em" dy="0.3em" style="text-anchor: end; visibility: inherit; font-family: Roboto, sans-serif; font-size: 12px; font-weight: 200;" fill="rgb(33, 33, 33)" stroke="none" stroke-width="1px">4e-3</text><text x="0" y="151.71428571428572" dx="0em" dy="0.3em" style="text-anchor: end; visibility: hidden; font-family: Roboto, sans-serif; font-size: 12px; font-weight: 200;" fill="rgb(33, 33, 33)" stroke="none" stroke-width="1px">4.2e-3</text><text x="0" y="139.07142857142856" dx="0em" dy="0.3em" style="text-anchor: end; visibility: inherit; font-family: Roboto, sans-serif; font-size: 12px; font-weight: 200;" fill="rgb(33, 33, 33)" stroke="none" stroke-width="1px">4.4e-3</text><text x="0" y="126.42857142857143" dx="0em" dy="0.3em" style="text-anchor: end; visibility: hidden; font-family: Roboto, sans-serif; font-size: 12px; font-weight: 200;" fill="rgb(33, 33, 33)" stroke="none" stroke-width="1px">4.6e-3</text><text x="0" y="113.78571428571432" dx="0em" dy="0.3em" style="text-anchor: end; visibility: inherit; font-family: Roboto, sans-serif; font-size: 12px; font-weight: 200;" fill="rgb(33, 33, 33)" stroke="none" stroke-width="1px">4.8e-3</text><text x="0" y="101.14285714285714" dx="0em" dy="0.3em" style="text-anchor: end; visibility: hidden; font-family: Roboto, sans-serif; font-size: 12px; font-weight: 200;" fill="rgb(33, 33, 33)" stroke="none" stroke-width="1px">5e-3</text><text x="0" y="88.5" dx="0em" dy="0.3em" style="text-anchor: end; visibility: inherit; font-family: Roboto, sans-serif; font-size: 12px; font-weight: 200;" fill="rgb(33, 33, 33)" stroke="none" stroke-width="1px">5.2e-3</text><text x="0" y="75.85714285714285" dx="0em" dy="0.3em" style="text-anchor: end; visibility: hidden; font-family: Roboto, sans-serif; font-size: 12px; font-weight: 200;" fill="rgb(33, 33, 33)" stroke="none" stroke-width="1px">5.4e-3</text><text x="0" y="63.21428571428572" dx="0em" dy="0.3em" style="text-anchor: end; visibility: inherit; font-family: Roboto, sans-serif; font-size: 12px; font-weight: 200;" fill="rgb(33, 33, 33)" stroke="none" stroke-width="1px">5.6e-3</text><text x="0" y="50.57142857142859" dx="0em" dy="0.3em" style="text-anchor: end; visibility: hidden; font-family: Roboto, sans-serif; font-size: 12px; font-weight: 200;" fill="rgb(33, 33, 33)" stroke="none" stroke-width="1px">5.8e-3</text><text x="0" y="37.92857142857141" dx="0em" dy="0.3em" style="text-anchor: end; visibility: inherit; font-family: Roboto, sans-serif; font-size: 12px; font-weight: 200;" fill="rgb(33, 33, 33)" stroke="none" stroke-width="1px">6e-3</text><text x="0" y="25.285714285714295" dx="0em" dy="0.3em" style="text-anchor: end; visibility: hidden; font-family: Roboto, sans-serif; font-size: 12px; font-weight: 200;" fill="rgb(33, 33, 33)" stroke="none" stroke-width="1px">6.2e-3</text><text x="0" y="12.642857142857117" dx="0em" dy="0.3em" style="text-anchor: end; visibility: inherit; font-family: Roboto, sans-serif; font-size: 12px; font-weight: 200;" fill="rgb(33, 33, 33)" stroke="none" stroke-width="1px">6.4e-3</text><text x="0" y="0" dx="0em" dy="0.3em" style="text-anchor: end; visibility: hidden; font-family: Roboto, sans-serif; font-size: 12px; font-weight: 200;" fill="rgb(33, 33, 33)" stroke="none" stroke-width="1px">6.6e-3</text></g><line x1="72.34375" y1="0" x2="72.34375" y2="177" fill="rgb(0, 0, 0)" stroke="rgb(204, 204, 204)" stroke-width="1px"></line></g></g><g transform="translate(72, 0)" clip-path="url(#clip_0)"><clipPath id="clip_0"><rect width="257" height="177"></rect></clipPath><g><g><g><line x1="0" y1="0" x2="0" y2="177" fill="rgb(0, 0, 0)" stroke="rgb(66, 66, 66)" stroke-width="1px" opacity="0.25"></line><line x1="21.471354166666664" y1="0" x2="21.471354166666664" y2="177" fill="rgb(0, 0, 0)" stroke="rgb(66, 66, 66)" stroke-width="1px" opacity="0.25"></line><line x1="42.94270833333333" y1="0" x2="42.94270833333333" y2="177" fill="rgb(0, 0, 0)" stroke="rgb(66, 66, 66)" stroke-width="1px" opacity="0.25"></line><line x1="64.4140625" y1="0" x2="64.4140625" y2="177" fill="rgb(0, 0, 0)" stroke="rgb(66, 66, 66)" stroke-width="1px" opacity="0.25"></line><line x1="85.88541666666666" y1="0" x2="85.88541666666666" y2="177" fill="rgb(0, 0, 0)" stroke="rgb(66, 66, 66)" stroke-width="1px" opacity="0.25"></line><line x1="107.35677083333334" y1="0" x2="107.35677083333334" y2="177" fill="rgb(0, 0, 0)" stroke="rgb(66, 66, 66)" stroke-width="1px" opacity="0.25"></line><line x1="128.828125" y1="0" x2="128.828125" y2="177" fill="rgb(0, 0, 0)" stroke="rgb(66, 66, 66)" stroke-width="1px" opacity="0.25"></line><line x1="150.29947916666669" y1="0" x2="150.29947916666669" y2="177" fill="rgb(0, 0, 0)" stroke="rgb(66, 66, 66)" stroke-width="1px" opacity="0.25"></line><line x1="171.77083333333331" y1="0" x2="171.77083333333331" y2="177" fill="rgb(0, 0, 0)" stroke="rgb(66, 66, 66)" stroke-width="1px" opacity="0.25"></line><line x1="193.2421875" y1="0" x2="193.2421875" y2="177" fill="rgb(0, 0, 0)" stroke="rgb(66, 66, 66)" stroke-width="1px" opacity="0.25"></line><line x1="214.71354166666669" y1="0" x2="214.71354166666669" y2="177" fill="rgb(0, 0, 0)" stroke="rgb(66, 66, 66)" stroke-width="1px" opacity="0.25"></line><line x1="236.18489583333331" y1="0" x2="236.18489583333331" y2="177" fill="rgb(0, 0, 0)" stroke="rgb(66, 66, 66)" stroke-width="1px" opacity="0.25"></line><line x1="257.65625" y1="0" x2="257.65625" y2="177" fill="rgb(0, 0, 0)" stroke="rgb(66, 66, 66)" stroke-width="1px" opacity="0.25"></line></g><g><line x1="0" y1="177" x2="257.65625" y2="177" fill="rgb(0, 0, 0)" stroke="rgb(66, 66, 66)" stroke-width="1px" opacity="0.25"></line><line x1="0" y1="164.35714285714283" x2="257.65625" y2="164.35714285714283" fill="rgb(0, 0, 0)" stroke="rgb(66, 66, 66)" stroke-width="1px" opacity="0.25"></line><line x1="0" y1="151.71428571428572" x2="257.65625" y2="151.71428571428572" fill="rgb(0, 0, 0)" stroke="rgb(66, 66, 66)" stroke-width="1px" opacity="0.25"></line><line x1="0" y1="139.07142857142856" x2="257.65625" y2="139.07142857142856" fill="rgb(0, 0, 0)" stroke="rgb(66, 66, 66)" stroke-width="1px" opacity="0.25"></line><line x1="0" y1="126.42857142857143" x2="257.65625" y2="126.42857142857143" fill="rgb(0, 0, 0)" stroke="rgb(66, 66, 66)" stroke-width="1px" opacity="0.25"></line><line x1="0" y1="113.78571428571432" x2="257.65625" y2="113.78571428571432" fill="rgb(0, 0, 0)" stroke="rgb(66, 66, 66)" stroke-width="1px" opacity="0.25"></line><line x1="0" y1="101.14285714285714" x2="257.65625" y2="101.14285714285714" fill="rgb(0, 0, 0)" stroke="rgb(66, 66, 66)" stroke-width="1px" opacity="0.25"></line><line x1="0" y1="88.5" x2="257.65625" y2="88.5" fill="rgb(0, 0, 0)" stroke="rgb(66, 66, 66)" stroke-width="1px" opacity="0.25"></line><line x1="0" y1="75.85714285714285" x2="257.65625" y2="75.85714285714285" fill="rgb(0, 0, 0)" stroke="rgb(66, 66, 66)" stroke-width="1px" opacity="0.25"></line><line x1="0" y1="63.21428571428572" x2="257.65625" y2="63.21428571428572" fill="rgb(0, 0, 0)" stroke="rgb(66, 66, 66)" stroke-width="1px" opacity="0.25"></line><line x1="0" y1="50.57142857142859" x2="257.65625" y2="50.57142857142859" fill="rgb(0, 0, 0)" stroke="rgb(66, 66, 66)" stroke-width="1px" opacity="0.25"></line><line x1="0" y1="37.92857142857141" x2="257.65625" y2="37.92857142857141" fill="rgb(0, 0, 0)" stroke="rgb(66, 66, 66)" stroke-width="1px" opacity="0.25"></line><line x1="0" y1="25.285714285714295" x2="257.65625" y2="25.285714285714295" fill="rgb(0, 0, 0)" stroke="rgb(66, 66, 66)" stroke-width="1px" opacity="0.25"></line><line x1="0" y1="12.642857142857117" x2="257.65625" y2="12.642857142857117" fill="rgb(0, 0, 0)" stroke="rgb(66, 66, 66)" stroke-width="1px" opacity="0.25"></line><line x1="0" y1="0" x2="257.65625" y2="0" fill="rgb(0, 0, 0)" stroke="rgb(66, 66, 66)" stroke-width="1px" opacity="0.25"></line></g></g></g><g><g><line x1="0" y1="417.2142857142857" x2="257.65625" y2="417.2142857142857" fill="rgb(0, 0, 0)" stroke="rgb(153, 153, 153)" stroke-width="1.5px"></line></g></g><g><g><line x1="21.471354166666664" y1="0" x2="21.471354166666664" y2="177" fill="rgb(0, 0, 0)" stroke="rgb(153, 153, 153)" stroke-width="1.5px"></line></g></g><g><g><g><g><g><path stroke="rgb(51, 187, 238)" stroke-width="2px" d="M21.471354166666664,123.13662838483495L25.765625,144.46521719944263L30.059895833333332,152.70948253598596L34.354166666666664,156.27821002581288L38.6484375,161.70208119414747L42.94270833333333,158.39751636769088L47.236979166666664,166.77374529013676L51.53125,167.2234458705144L55.825520833333336,159.05804077189947L60.119791666666664,163.43426883912514L64.4140625,160.8848665896803L68.70833333333333,156.61961392260025L73.00260416666667,158.45509405540568L77.296875,157.00634994570697L81.59114583333333,156.4861785144146L85.88541666666666,154.50551783160438L90.1796875,154.94865408459944L94.47395833333333,156.77898283941406L98.76822916666667,155.94587255428942L103.0625,144.18274506687055L107.35677083333334,149.96812522437955L111.65104166666667,149.75762520145094L115.9453125,149.98384428636302L120.23958333333333,150.09470194072594L124.53385416666667,150.0052151459136L128.828125,149.75164960298156L133.12239583333334,149.66516532562673L137.41666666666666,149.58662888860064L141.7109375,149.38395896021808L146.00520833333334,149.36620878348393L150.29947916666669,149.28596503260945L154.59375,149.18467422308666L158.88802083333334,148.57557528944952L163.18229166666666,148.41944438165854L167.4765625,148.21121096504586L171.77083333333331,148.23994093601192L176.06510416666666,148.0877839483853L180.359375,148.3505336623639L184.65364583333334,148.19549190306236L188.94791666666666,147.81897032660032L193.2421875,147.81352458415287L197.53645833333334,147.67246513654078L201.83072916666666,147.73881488506282L206.125,147.63372677404965L210.41927083333334,147.64164517793273L214.71354166666669,147.68844912653523L219.0078125,147.63755351198571L223.30208333333334,147.77369707317223L227.59635416666666,147.52560670913329L231.890625,147.47874388763947L236.18489583333331,147.5838614350983" style="fill: none;" fill="none"></path></g><g><path stroke="rgb(238, 51, 119)" stroke-width="2px" d="M21.471354166666664,136.68969782362026L25.765625,136.68969782362026L30.059895833333332,136.68969782362026L34.354166666666664,136.68969782362026L38.6484375,136.68969782362026L42.94270833333333,136.68969782362026L47.236979166666664,136.68969782362026L51.53125,136.68969782362026L55.825520833333336,136.68969782362026L60.119791666666664,136.68969782362026L64.4140625,136.68969782362026L68.70833333333333,136.68969782362026L73.00260416666667,136.68969782362026L77.296875,136.68969782362026L81.59114583333333,136.68969782362026L85.88541666666666,136.68969782362026L90.1796875,136.68969782362026L94.47395833333333,136.68969782362026L98.76822916666667,136.68969782362026L103.0625,136.68969782362026L107.35677083333334,136.68969782362026L111.65104166666667,136.68969782362026L115.9453125,136.68969782362026L120.23958333333333,136.68969782362026L124.53385416666667,136.68969782362026L128.828125,136.68969782362026L133.12239583333334,136.68969782362026L137.41666666666666,136.68969782362026L141.7109375,136.68969782362026L146.00520833333334,136.68969782362026L150.29947916666669,136.68969782362026L154.59375,136.68969782362026L158.88802083333334,136.68969782362026L163.18229166666666,136.68969782362026L167.4765625,136.68969782362026L171.77083333333331,136.68969782362026L176.06510416666666,136.68969782362026L180.359375,136.68969782362026L184.65364583333334,136.68969782362026L188.94791666666666,136.68969782362026L193.2421875,136.68969782362026L197.53645833333334,136.68969782362026L201.83072916666666,136.68969782362026L206.125,136.68969782362026L210.41927083333334,136.68969782362026L214.71354166666669,136.68969782362026L219.0078125,136.68969782362026L223.30208333333334,136.68969782362026L227.59635416666666,136.68969782362026L231.890625,136.68969782362026L236.18489583333331,136.68969782362026" style="fill: none;" fill="none"></path></g><g><path stroke="rgb(204, 51, 17)" stroke-width="2px" d="M21.471354166666664,87.67866339827222L25.765625,90.00873469108981L30.059895833333332,106.03381796367466L34.354166666666664,110.553578139948L38.6484375,114.2294837284301L42.94270833333333,112.29444953639592L47.236979166666664,112.07779729632395L51.53125,112.96698401043457L55.825520833333336,112.80049147377056L60.119791666666664,113.40594028814563L64.4140625,114.61698509912407L68.70833333333333,51.970989043159136L73.00260416666667,109.39649033386792L77.296875,111.0808437546449L81.59114583333333,112.72507529998464L85.88541666666666,115.14869561711592L90.1796875,113.42542721517384L94.47395833333333,113.71169664923633L98.76822916666667,118.0888372462775L103.0625,119.68361556290516L107.35677083333334,115.33511662749308L111.65104166666667,117.18516780090118L115.9453125,118.13393388103162L120.23958333333333,118.6213719847479L124.53385416666667,119.03427700804812L128.828125,119.4101509827056L133.12239583333334,119.9123661821442L137.41666666666666,120.78954282642475L141.7109375,120.72769685408899L146.00520833333334,120.1969283023583L150.29947916666669,121.4585154905383L154.59375,121.37559302310859L158.88802083333334,120.34887923486531L163.18229166666666,120.98170394370598L167.4765625,120.70508966382062L171.77083333333331,120.53691924975386L176.06510416666666,120.61439597473613L180.359375,120.84888670087925L184.65364583333334,119.38280452468565L188.94791666666666,120.42567892159735L193.2421875,120.84488334426922L197.53645833333334,120.74706603533456L201.83072916666666,120.85704059632761L206.125,120.78686410986951L210.41927083333334,120.85094725207558L214.71354166666669,121.01028673244375L219.0078125,121.31068566042399L223.30208333333334,121.34247702173889L227.59635416666666,121.1406901867262L231.890625,121.03845741094223L236.18489583333331,121.19773801841906" style="fill: none;" fill="none"></path></g><g><path stroke="rgb(0, 119, 187)" stroke-width="2px" d="M21.471354166666664,87.67866339827222L25.765625,103.08852495652224L30.059895833333332,113.31183197136437L34.354166666666664,118.48019479135317L38.6484375,123.37518134047943L42.94270833333333,123.95967140554318L47.236979166666664,119.72094097600451L51.53125,97.06621084788016L55.825520833333336,106.90725617935615L60.119791666666664,116.74909629486501L64.4140625,27.497557556256652L68.70833333333333,109.71784801115948L73.00260416666667,103.77024360160743L77.296875,117.51117643660733L81.59114583333333,118.08427459719991L85.88541666666666,96.69316277200622L90.1796875,129.57496778001743L94.47395833333333,116.62405027369303L98.76822916666667,102.84885341594261L103.0625,68.84740376073334L107.35677083333334,95.34697523899376L111.65104166666667,124.14467946652854L115.9453125,132.9484727622143L120.23958333333333,8.626382098400173L124.53385416666667,80.76669159238892L128.828125,103.08140133667206L133.12239583333334,108.3802559202803L137.41666666666666,118.7450933658651L141.7109375,108.31452433711716L146.00520833333334,113.36234491212028L150.29947916666669,140.03385466949214L154.59375,83.6690662617662L158.88802083333334,133.92361389765782L163.18229166666666,136.03035087723816L167.4765625,124.10829601969039L171.77083333333331,114.92020992588783L176.06510416666666,109.75950058177114L180.359375,101.18454621466142L184.65364583333334,108.01021036186388L188.94791666666666,155.27289653356584L193.2421875,148.60642468450325L197.53645833333334,148.91327019408345L201.83072916666666,149.1292453959052L206.125,150.57386840321124L210.41927083333334,150.10200217925012L214.71354166666669,146.0214632086988L219.0078125,143.2050429606544L223.30208333333334,144.2766178920865L227.59635416666666,143.37913010029922L231.890625,143.07982032080847L236.18489583333331,142.09646641702523" style="fill: none;" fill="none"></path></g><g><path stroke="rgb(0, 119, 187)" stroke-width="2px" d="M21.471354166666664,94.54762855704342L25.765625,94.54762855704342L30.059895833333332,94.54762855704342L34.354166666666664,94.54762855704342L38.6484375,94.54762855704342L42.94270833333333,94.54762855704342L47.236979166666664,94.54762855704342L51.53125,94.54762855704342L55.825520833333336,94.54762855704342L60.119791666666664,94.54762855704342L64.4140625,94.54762855704342L68.70833333333333,94.54762855704342L73.00260416666667,94.54762855704342L77.296875,94.54762855704342L81.59114583333333,94.54762855704342L85.88541666666666,94.54762855704342L90.1796875,94.54762855704342L94.47395833333333,94.54762855704342L98.76822916666667,94.54762855704342L103.0625,94.54762855704342L107.35677083333334,94.54762855704342L111.65104166666667,94.54762855704342L115.9453125,94.54762855704342L120.23958333333333,94.54762855704342L124.53385416666667,94.54762855704342L128.828125,94.54762855704342L133.12239583333334,94.54762855704342L137.41666666666666,94.54762855704342L141.7109375,94.54762855704342L146.00520833333334,94.54762855704342L150.29947916666669,94.54762855704342L154.59375,94.54762855704342L158.88802083333334,94.54762855704342L163.18229166666666,94.54762855704342L167.4765625,94.54762855704342L171.77083333333331,94.54762855704342L176.06510416666666,94.54762855704342L180.359375,94.54762855704342L184.65364583333334,94.54762855704342L188.94791666666666,94.54762855704342L193.2421875,94.54762855704342L197.53645833333334,94.54762855704342L201.83072916666666,94.54762855704342L206.125,94.54762855704342L210.41927083333334,94.54762855704342L214.71354166666669,94.54762855704342L219.0078125,94.54762855704342L223.30208333333334,94.54762855704342L227.59635416666666,94.54762855704342L231.890625,94.54762855704342L236.18489583333331,94.54762855704342" style="fill: none;" fill="none"></path></g></g></g></g></g></g><g transform="translate(72, 177)" clip-path="url(#clip_1)"><clipPath id="clip_1"><rect width="257" height="23"></rect></clipPath><g><g><line x1="0" y1="0" x2="0" y2="5" style="visibility: inherit;" fill="rgb(0, 0, 0)" stroke="rgb(204, 204, 204)" stroke-width="1px"></line><line x1="21.471354166666664" y1="0" x2="21.471354166666664" y2="5" style="visibility: inherit;" fill="rgb(0, 0, 0)" stroke="rgb(204, 204, 204)" stroke-width="1px"></line><line x1="42.94270833333333" y1="0" x2="42.94270833333333" y2="5" style="visibility: inherit;" fill="rgb(0, 0, 0)" stroke="rgb(204, 204, 204)" stroke-width="1px"></line><line x1="64.4140625" y1="0" x2="64.4140625" y2="5" style="visibility: inherit;" fill="rgb(0, 0, 0)" stroke="rgb(204, 204, 204)" stroke-width="1px"></line><line x1="85.88541666666666" y1="0" x2="85.88541666666666" y2="5" style="visibility: inherit;" fill="rgb(0, 0, 0)" stroke="rgb(204, 204, 204)" stroke-width="1px"></line><line x1="107.35677083333334" y1="0" x2="107.35677083333334" y2="5" style="visibility: inherit;" fill="rgb(0, 0, 0)" stroke="rgb(204, 204, 204)" stroke-width="1px"></line><line x1="128.828125" y1="0" x2="128.828125" y2="5" style="visibility: inherit;" fill="rgb(0, 0, 0)" stroke="rgb(204, 204, 204)" stroke-width="1px"></line><line x1="150.29947916666669" y1="0" x2="150.29947916666669" y2="5" style="visibility: inherit;" fill="rgb(0, 0, 0)" stroke="rgb(204, 204, 204)" stroke-width="1px"></line><line x1="171.77083333333331" y1="0" x2="171.77083333333331" y2="5" style="visibility: inherit;" fill="rgb(0, 0, 0)" stroke="rgb(204, 204, 204)" stroke-width="1px"></line><line x1="193.2421875" y1="0" x2="193.2421875" y2="5" style="visibility: inherit;" fill="rgb(0, 0, 0)" stroke="rgb(204, 204, 204)" stroke-width="1px"></line><line x1="214.71354166666669" y1="0" x2="214.71354166666669" y2="5" style="visibility: inherit;" fill="rgb(0, 0, 0)" stroke="rgb(204, 204, 204)" stroke-width="1px"></line><line x1="236.18489583333331" y1="0" x2="236.18489583333331" y2="5" style="visibility: inherit;" fill="rgb(0, 0, 0)" stroke="rgb(204, 204, 204)" stroke-width="1px"></line><line x1="257.65625" y1="0" x2="257.65625" y2="5" style="visibility: inherit;" fill="rgb(0, 0, 0)" stroke="rgb(204, 204, 204)" stroke-width="1px"></line></g><g transform="translate(0, 8)"><text x="0" y="0" dx="0em" dy="0.95em" style="text-anchor: middle; visibility: hidden; font-family: Roboto, sans-serif; font-size: 12px; font-weight: 200;" fill="rgb(33, 33, 33)" stroke="none" stroke-width="1px">-5</text><text x="21.471354166666664" y="0" dx="0em" dy="0.95em" style="text-anchor: middle; visibility: inherit; font-family: Roboto, sans-serif; font-size: 12px; font-weight: 200;" fill="rgb(33, 33, 33)" stroke="none" stroke-width="1px">0</text><text x="42.94270833333333" y="0" dx="0em" dy="0.95em" style="text-anchor: middle; visibility: inherit; font-family: Roboto, sans-serif; font-size: 12px; font-weight: 200;" fill="rgb(33, 33, 33)" stroke="none" stroke-width="1px">5</text><text x="64.4140625" y="0" dx="0em" dy="0.95em" style="text-anchor: middle; visibility: inherit; font-family: Roboto, sans-serif; font-size: 12px; font-weight: 200;" fill="rgb(33, 33, 33)" stroke="none" stroke-width="1px">10</text><text x="85.88541666666666" y="0" dx="0em" dy="0.95em" style="text-anchor: middle; visibility: inherit; font-family: Roboto, sans-serif; font-size: 12px; font-weight: 200;" fill="rgb(33, 33, 33)" stroke="none" stroke-width="1px">15</text><text x="107.35677083333334" y="0" dx="0em" dy="0.95em" style="text-anchor: middle; visibility: inherit; font-family: Roboto, sans-serif; font-size: 12px; font-weight: 200;" fill="rgb(33, 33, 33)" stroke="none" stroke-width="1px">20</text><text x="128.828125" y="0" dx="0em" dy="0.95em" style="text-anchor: middle; visibility: inherit; font-family: Roboto, sans-serif; font-size: 12px; font-weight: 200;" fill="rgb(33, 33, 33)" stroke="none" stroke-width="1px">25</text><text x="150.29947916666669" y="0" dx="0em" dy="0.95em" style="text-anchor: middle; visibility: inherit; font-family: Roboto, sans-serif; font-size: 12px; font-weight: 200;" fill="rgb(33, 33, 33)" stroke="none" stroke-width="1px">30</text><text x="171.77083333333331" y="0" dx="0em" dy="0.95em" style="text-anchor: middle; visibility: inherit; font-family: Roboto, sans-serif; font-size: 12px; font-weight: 200;" fill="rgb(33, 33, 33)" stroke="none" stroke-width="1px">35</text><text x="193.2421875" y="0" dx="0em" dy="0.95em" style="text-anchor: middle; visibility: inherit; font-family: Roboto, sans-serif; font-size: 12px; font-weight: 200;" fill="rgb(33, 33, 33)" stroke="none" stroke-width="1px">40</text><text x="214.71354166666669" y="0" dx="0em" dy="0.95em" style="text-anchor: middle; visibility: inherit; font-family: Roboto, sans-serif; font-size: 12px; font-weight: 200;" fill="rgb(33, 33, 33)" stroke="none" stroke-width="1px">45</text><text x="236.18489583333331" y="0" dx="0em" dy="0.95em" style="text-anchor: middle; visibility: inherit; font-family: Roboto, sans-serif; font-size: 12px; font-weight: 200;" fill="rgb(33, 33, 33)" stroke="none" stroke-width="1px">50</text><text x="257.65625" y="0" dx="0em" dy="0.95em" style="text-anchor: middle; visibility: hidden; font-family: Roboto, sans-serif; font-size: 12px; font-weight: 200;" fill="rgb(33, 33, 33)" stroke="none" stroke-width="1px">55</text></g><line x1="0" y1="0" x2="257.65625" y2="0" fill="rgb(0, 0, 0)" stroke="rgb(204, 204, 204)" stroke-width="1px"></line></g></g></g></g></svg>