<svg viewBox="0 0 330 200" xmlns="http://www.w3.org/2000/svg"><g><g><g><g><g><line x1="61.953125" y1="177" x2="56.953125" y2="177" style="visibility: inherit;" fill="rgb(0, 0, 0)" stroke="rgb(204, 204, 204)" stroke-width="1px"></line><line x1="61.953125" y1="162.25" x2="56.953125" y2="162.25" style="visibility: inherit;" fill="rgb(0, 0, 0)" stroke="rgb(204, 204, 204)" stroke-width="1px"></line><line x1="61.953125" y1="147.5" x2="56.953125" y2="147.5" style="visibility: inherit;" fill="rgb(0, 0, 0)" stroke="rgb(204, 204, 204)" stroke-width="1px"></line><line x1="61.953125" y1="132.75" x2="56.953125" y2="132.75" style="visibility: inherit;" fill="rgb(0, 0, 0)" stroke="rgb(204, 204, 204)" stroke-width="1px"></line><line x1="61.953125" y1="118.00000000000001" x2="56.953125" y2="118.00000000000001" style="visibility: inherit;" fill="rgb(0, 0, 0)" stroke="rgb(204, 204, 204)" stroke-width="1px"></line><line x1="61.953125" y1="103.24999999999999" x2="56.953125" y2="103.24999999999999" style="visibility: inherit;" fill="rgb(0, 0, 0)" stroke="rgb(204, 204, 204)" stroke-width="1px"></line><line x1="61.953125" y1="88.5" x2="56.953125" y2="88.5" style="visibility: inherit;" fill="rgb(0, 0, 0)" stroke="rgb(204, 204, 204)" stroke-width="1px"></line><line x1="61.953125" y1="73.75" x2="56.953125" y2="73.75" style="visibility: inherit;" fill="rgb(0, 0, 0)" stroke="rgb(204, 204, 204)" stroke-width="1px"></line><line x1="61.953125" y1="59.00000000000001" x2="56.953125" y2="59.00000000000001" style="visibility: inherit;" fill="rgb(0, 0, 0)" stroke="rgb(204, 204, 204)" stroke-width="1px"></line><line x1="61.953125" y1="44.24999999999998" x2="56.953125" y2="44.24999999999998" style="visibility: inherit;" fill="rgb(0, 0, 0)" stroke="rgb(204, 204, 204)" stroke-width="1px"></line><line x1="61.953125" y1="29.500000000000032" x2="56.953125" y2="29.500000000000032" style="visibility: inherit;" fill="rgb(0, 0, 0)" stroke="rgb(204, 204, 204)" stroke-width="1px"></line><line x1="61.953125" y1="14.750000000000007" x2="56.953125" y2="14.750000000000007" style="visibility: inherit;" fill="rgb(0, 0, 0)" stroke="rgb(204, 204, 204)" stroke-width="1px"></line><line x1="61.953125" y1="0" x2="56.953125" y2="0" style="visibility: inherit;" fill="rgb(0, 0, 0)" stroke="rgb(204, 204, 204)" stroke-width="1px"></line></g><g transform="translate(51.953125, 0)"><text x="0" y="177" dx="0em" dy="0.3em" style="text-anchor: end; visibility: hidden; font-family: Roboto, sans-serif; font-size: 12px; font-weight: 200;" fill="rgb(33, 33, 33)" stroke="none" stroke-width="1px">2e-3</text><text x="0" y="162.25" dx="0em" dy="0.3em" style="text-anchor: end; visibility: inherit; font-family: Roboto, sans-serif; font-size: 12px; font-weight: 200;" fill="rgb(33, 33, 33)" stroke="none" stroke-width="1px">4e-3</text><text x="0" y="147.5" dx="0em" dy="0.3em" style="text-anchor: end; visibility: hidden; font-family: Roboto, sans-serif; font-size: 12px; font-weight: 200;" fill="rgb(33, 33, 33)" stroke="none" stroke-width="1px">6e-3</text><text x="0" y="132.75" dx="0em" dy="0.3em" style="text-anchor: end; visibility: inherit; font-family: Roboto, sans-serif; font-size: 12px; font-weight: 200;" fill="rgb(33, 33, 33)" stroke="none" stroke-width="1px">8e-3</text><text x="0" y="118.00000000000001" dx="0em" dy="0.3em" style="text-anchor: end; visibility: hidden; font-family: Roboto, sans-serif; font-size: 12px; font-weight: 200;" fill="rgb(33, 33, 33)" stroke="none" stroke-width="1px">0.01</text><text x="0" y="103.24999999999999" dx="0em" dy="0.3em" style="text-anchor: end; visibility: inherit; font-family: Roboto, sans-serif; font-size: 12px; font-weight: 200;" fill="rgb(33, 33, 33)" stroke="none" stroke-width="1px">0.012</text><text x="0" y="88.5" dx="0em" dy="0.3em" style="text-anchor: end; visibility: hidden; font-family: Roboto, sans-serif; font-size: 12px; font-weight: 200;" fill="rgb(33, 33, 33)" stroke="none" stroke-width="1px">0.014</text><text x="0" y="73.75" dx="0em" dy="0.3em" style="text-anchor: end; visibility: inherit; font-family: Roboto, sans-serif; font-size: 12px; font-weight: 200;" fill="rgb(33, 33, 33)" stroke="none" stroke-width="1px">0.016</text><text x="0" y="59.00000000000001" dx="0em" dy="0.3em" style="text-anchor: end; visibility: hidden; font-family: Roboto, sans-serif; font-size: 12px; font-weight: 200;" fill="rgb(33, 33, 33)" stroke="none" stroke-width="1px">0.018</text><text x="0" y="44.24999999999998" dx="0em" dy="0.3em" style="text-anchor: end; visibility: inherit; font-family: Roboto, sans-serif; font-size: 12px; font-weight: 200;" fill="rgb(33, 33, 33)" stroke="none" stroke-width="1px">0.02</text><text x="0" y="29.500000000000032" dx="0em" dy="0.3em" style="text-anchor: end; visibility: hidden; font-family: Roboto, sans-serif; font-size: 12px; font-weight: 200;" fill="rgb(33, 33, 33)" stroke="none" stroke-width="1px">0.022</text><text x="0" y="14.750000000000007" dx="0em" dy="0.3em" style="text-anchor: end; visibility: inherit; font-family: Roboto, sans-serif; font-size: 12px; font-weight: 200;" fill="rgb(33, 33, 33)" stroke="none" stroke-width="1px">0.024</text><text x="0" y="0" dx="0em" dy="0.3em" style="text-anchor: end; visibility: hidden; font-family: Roboto, sans-serif; font-size: 12px; font-weight: 200;" fill="rgb(33, 33, 33)" stroke="none" stroke-width="1px">0.026</text></g><line x1="61.953125" y1="0" x2="61.953125" y2="177" fill="rgb(0, 0, 0)" stroke="rgb(204, 204, 204)" stroke-width="1px"></line></g></g><g transform="translate(61, 0)" clip-path="url(#clip_0)"><clipPath id="clip_0"><rect width="268" height="177"></rect></clipPath><g><g><g><line x1="0" y1="0" x2="0" y2="177" fill="rgb(0, 0, 0)" stroke="rgb(66, 66, 66)" stroke-width="1px" opacity="0.25"></line><line x1="22.337239583333332" y1="0" x2="22.337239583333332" y2="177" fill="rgb(0, 0, 0)" stroke="rgb(66, 66, 66)" stroke-width="1px" opacity="0.25"></line><line x1="44.674479166666664" y1="0" x2="44.674479166666664" y2="177" fill="rgb(0, 0, 0)" stroke="rgb(66, 66, 66)" stroke-width="1px" opacity="0.25"></line><line x1="67.01171875" y1="0" x2="67.01171875" y2="177" fill="rgb(0, 0, 0)" stroke="rgb(66, 66, 66)" stroke-width="1px" opacity="0.25"></line><line x1="89.34895833333333" y1="0" x2="89.34895833333333" y2="177" fill="rgb(0, 0, 0)" stroke="rgb(66, 66, 66)" stroke-width="1px" opacity="0.25"></line><line x1="111.68619791666667" y1="0" x2="111.68619791666667" y2="177" fill="rgb(0, 0, 0)" stroke="rgb(66, 66, 66)" stroke-width="1px" opacity="0.25"></line><line x1="134.0234375" y1="0" x2="134.0234375" y2="177" fill="rgb(0, 0, 0)" stroke="rgb(66, 66, 66)" stroke-width="1px" opacity="0.25"></line><line x1="156.36067708333334" y1="0" x2="156.36067708333334" y2="177" fill="rgb(0, 0, 0)" stroke="rgb(66, 66, 66)" stroke-width="1px" opacity="0.25"></line><line x1="178.69791666666666" y1="0" x2="178.69791666666666" y2="177" fill="rgb(0, 0, 0)" stroke="rgb(66, 66, 66)" stroke-width="1px" opacity="0.25"></line><line x1="201.03515625" y1="0" x2="201.03515625" y2="177" fill="rgb(0, 0, 0)" stroke="rgb(66, 66, 66)" stroke-width="1px" opacity="0.25"></line><line x1="223.37239583333334" y1="0" x2="223.37239583333334" y2="177" fill="rgb(0, 0, 0)" stroke="rgb(66, 66, 66)" stroke-width="1px" opacity="0.25"></line><line x1="245.70963541666666" y1="0" x2="245.70963541666666" y2="177" fill="rgb(0, 0, 0)" stroke="rgb(66, 66, 66)" stroke-width="1px" opacity="0.25"></line><line x1="268.046875" y1="0" x2="268.046875" y2="177" fill="rgb(0, 0, 0)" stroke="rgb(66, 66, 66)" stroke-width="1px" opacity="0.25"></line></g><g><line x1="0" y1="177" x2="268.046875" y2="177" fill="rgb(0, 0, 0)" stroke="rgb(66, 66, 66)" stroke-width="1px" opacity="0.25"></line><line x1="0" y1="162.25" x2="268.046875" y2="162.25" fill="rgb(0, 0, 0)" stroke="rgb(66, 66, 66)" stroke-width="1px" opacity="0.25"></line><line x1="0" y1="147.5" x2="268.046875" y2="147.5" fill="rgb(0, 0, 0)" stroke="rgb(66, 66, 66)" stroke-width="1px" opacity="0.25"></line><line x1="0" y1="132.75" x2="268.046875" y2="132.75" fill="rgb(0, 0, 0)" stroke="rgb(66, 66, 66)" stroke-width="1px" opacity="0.25"></line><line x1="0" y1="118.00000000000001" x2="268.046875" y2="118.00000000000001" fill="rgb(0, 0, 0)" stroke="rgb(66, 66, 66)" stroke-width="1px" opacity="0.25"></line><line x1="0" y1="103.24999999999999" x2="268.046875" y2="103.24999999999999" fill="rgb(0, 0, 0)" stroke="rgb(66, 66, 66)" stroke-width="1px" opacity="0.25"></line><line x1="0" y1="88.5" x2="268.046875" y2="88.5" fill="rgb(0, 0, 0)" stroke="rgb(66, 66, 66)" stroke-width="1px" opacity="0.25"></line><line x1="0" y1="73.75" x2="268.046875" y2="73.75" fill="rgb(0, 0, 0)" stroke="rgb(66, 66, 66)" stroke-width="1px" opacity="0.25"></line><line x1="0" y1="59.00000000000001" x2="268.046875" y2="59.00000000000001" fill="rgb(0, 0, 0)" stroke="rgb(66, 66, 66)" stroke-width="1px" opacity="0.25"></line><line x1="0" y1="44.24999999999998" x2="268.046875" y2="44.24999999999998" fill="rgb(0, 0, 0)" stroke="rgb(66, 66, 66)" stroke-width="1px" opacity="0.25"></line><line x1="0" y1="29.500000000000032" x2="268.046875" y2="29.500000000000032" fill="rgb(0, 0, 0)" stroke="rgb(66, 66, 66)" stroke-width="1px" opacity="0.25"></line><line x1="0" y1="14.750000000000007" x2="268.046875" y2="14.750000000000007" fill="rgb(0, 0, 0)" stroke="rgb(66, 66, 66)" stroke-width="1px" opacity="0.25"></line><line x1="0" y1="0" x2="268.046875" y2="0" fill="rgb(0, 0, 0)" stroke="rgb(66, 66, 66)" stroke-width="1px" opacity="0.25"></line></g></g></g><g><g><line x1="0" y1="191.75" x2="268.046875" y2="191.75" fill="rgb(0, 0, 0)" stroke="rgb(153, 153, 153)" stroke-width="1.5px"></line></g></g><g><g><line x1="22.337239583333332" y1="0" x2="22.337239583333332" y2="177" fill="rgb(0, 0, 0)" stroke="rgb(153, 153, 153)" stroke-width="1.5px"></line></g></g><g><g><g><g><g><path stroke="rgb(51, 187, 238)" stroke-width="2px" d="M22.337239583333332,20.828308539465077L26.8046875,120.46286172885446L31.272135416666668,123.28166142292321L35.739583333333336,131.2507676212117L40.20703125,132.77083623874933L44.674479166666664,137.53231673222035L49.14192708333333,137.5990648539737L53.609375,134.15815384546295L58.07682291666667,141.58573001809418L62.544270833333336,141.4771046275273L67.01171875,143.27807101840153L71.47916666666667,145.31429053936154L75.94661458333333,144.28912510816008L80.4140625,145.87688626674935L84.88151041666666,146.7847273470834L89.34895833333333,146.57618582900614L93.81640625,145.3622361314483L98.28385416666666,145.43982275249436L102.75130208333334,146.26966166729107L107.21875,147.01216755388305L111.68619791666667,145.39675379823893L116.15364583333334,145.72839264478534L120.62109375,146.26112755108625L125.08854166666667,146.5489796847105L129.55598958333334,147.02560921618715L134.0234375,147.1319439606741L138.49088541666669,147.53423223923892L142.95833333333334,147.28019718499854L147.42578125,146.39094227645546L151.89322916666666,147.13518589455634L156.36067708333334,147.17493392713368L160.828125,147.42339175613597L165.29557291666669,146.79063769476488L169.76302083333331,146.70488098822534L174.23046875,146.77215455053374L178.69791666666666,146.65355952642858L183.16536458333334,147.2505698930472L187.6328125,147.24083378864452L192.10026041666666,147.4579059886746L196.56770833333331,147.07397035276517L201.03515625,147.42873545223847L205.50260416666669,147.37671683728695L209.97005208333334,147.23264309763908L214.4375,147.2947309394367L218.90494791666666,147.31544291321188L223.37239583333334,147.25849271239713L227.83984375,147.32984273182228L232.30729166666669,147.29738905047998L236.77473958333331,147.2550241178833L241.2421875,147.25725294742733L245.70963541666666,147.27002149634063" style="fill: none;" fill="none"></path></g><g><path stroke="rgb(238, 51, 119)" stroke-width="2px" d="M22.337239583333332,146.5708661726676L26.8046875,146.5708661726676L31.272135416666668,146.5708661726676L35.739583333333336,146.5708661726676L40.20703125,146.5708661726676L44.674479166666664,146.5708661726676L49.14192708333333,146.5708661726676L53.609375,146.5708661726676L58.07682291666667,146.5708661726676L62.544270833333336,146.5708661726676L67.01171875,146.5708661726676L71.47916666666667,146.5708661726676L75.94661458333333,146.5708661726676L80.4140625,146.5708661726676L84.88151041666666,146.5708661726676L89.34895833333333,146.5708661726676L93.81640625,146.5708661726676L98.28385416666666,146.5708661726676L102.75130208333334,146.5708661726676L107.21875,146.5708661726676L111.68619791666667,146.5708661726676L116.15364583333334,146.5708661726676L120.62109375,146.5708661726676L125.08854166666667,146.5708661726676L129.55598958333334,146.5708661726676L134.0234375,146.5708661726676L138.49088541666669,146.5708661726676L142.95833333333334,146.5708661726676L147.42578125,146.5708661726676L151.89322916666666,146.5708661726676L156.36067708333334,146.5708661726676L160.828125,146.5708661726676L165.29557291666669,146.5708661726676L169.76302083333331,146.5708661726676L174.23046875,146.5708661726676L178.69791666666666,146.5708661726676L183.16536458333334,146.5708661726676L187.6328125,146.5708661726676L192.10026041666666,146.5708661726676L196.56770833333331,146.5708661726676L201.03515625,146.5708661726676L205.50260416666669,146.5708661726676L209.97005208333334,146.5708661726676L214.4375,146.5708661726676L218.90494791666666,146.5708661726676L223.37239583333334,146.5708661726676L227.83984375,146.5708661726676L232.30729166666669,146.5708661726676L236.77473958333331,146.5708661726676L241.2421875,146.5708661726676L245.70963541666666,146.5708661726676" style="fill: none;" fill="none"></path></g><g><path stroke="rgb(204, 51, 17)" stroke-width="2px" d="M22.337239583333332,62.81469040736555L26.8046875,83.73446390219033L31.272135416666668,77.47699576616287L35.739583333333336,86.25830942951143L40.20703125,111.01400503143668L44.674479166666664,112.75570653565228L49.14192708333333,116.62099149730057L53.609375,121.47857609856874L58.07682291666667,124.11217345111073L62.544270833333336,124.85256383847445L67.01171875,124.83867572341114L71.47916666666667,112.80901986360551L75.94661458333333,120.66805828548968L80.4140625,127.54652160406111L84.88151041666666,127.90970748942347L89.34895833333333,127.80009303428231L93.81640625,126.15481158904731L98.28385416666666,127.99295375775547L102.75130208333334,126.27876061201097L107.21875,125.9573283623904L111.68619791666667,132.2360270442441L116.15364583333334,131.27392134815454L120.62109375,130.32336847577244L125.08854166666667,129.8572580581531L129.55598958333334,129.6973936278373L134.0234375,128.9718941571191L138.49088541666669,128.74532968457788L142.95833333333334,127.15786730591208L147.42578125,127.73245200701058L151.89322916666666,127.88580509554596L156.36067708333334,126.64679566118868L160.828125,127.4468596111983L165.29557291666669,128.1935140741989L169.76302083333331,128.63494595699012L174.23046875,128.9849923942238L178.69791666666666,129.15890291519463L183.16536458333334,129.19532659184188L187.6328125,130.03261783346534L192.10026041666666,130.88964228704572L196.56770833333331,130.88434667047113L201.03515625,130.94541453942657L205.50260416666669,130.85379556473345L209.97005208333334,130.8477444127202L214.4375,130.7832835027948L218.90494791666666,130.72791649214923L223.37239583333334,130.71835553459823L227.83984375,130.65457460656762L232.30729166666669,130.69387618638575L236.77473958333331,130.43839531205595L241.2421875,130.41320850793272L245.70963541666666,130.73431106936187" style="fill: none;" fill="none"></path></g><g><path stroke="rgb(0, 119, 187)" stroke-width="2px" d="M22.337239583333332,62.81469040736555L26.8046875,127.53158947639167L31.272135416666668,136.84231025585905L35.739583333333336,143.67713796859607L40.20703125,144.36292718350887L44.674479166666664,142.7108733933419L49.14192708333333,146.5787958605215L53.609375,149.2564203236252L58.07682291666667,144.19615647243336L62.544270833333336,149.44121398916468L67.01171875,107.23090858850628L71.47916666666667,158.25889981538057L75.94661458333333,157.02902892557904L80.4140625,159.7955593043007L84.88151041666666,158.30149140860885L89.34895833333333,150.60947439819574L93.81640625,151.40303387492895L98.28385416666666,153.8788685593754L102.75130208333334,155.3734687641263L107.21875,157.20052173314616L111.68619791666667,160.03856354113668L116.15364583333334,160.22852575592697L120.62109375,159.70793779892847L125.08854166666667,158.44059921987355L129.55598958333334,158.73404231574386L134.0234375,157.14473917800933L138.49088541666669,156.23288689134642L142.95833333333334,157.23124111723155L147.42578125,158.36847649374977L151.89322916666666,155.61380115291104L156.36067708333334,155.33031738782302L160.828125,153.64260919345543L165.29557291666669,158.5770798283629L169.76302083333331,160.05707415938377L174.23046875,160.54236830864102L178.69791666666666,160.16682941885665L183.16536458333334,160.69974290626124L187.6328125,161.3117506513372L192.10026041666666,160.05595115898177L196.56770833333331,149.87106900848448L201.03515625,150.85326851299033L205.50260416666669,150.89745703339577L209.97005208333334,150.88496665889397L214.4375,151.3361312118359L218.90494791666666,151.33035136573017L223.37239583333334,151.73801768291742L227.83984375,152.86674985149875L232.30729166666669,152.90134650608525L236.77473958333331,153.10742566548288L241.2421875,152.86439738888294L245.70963541666666,152.9284221488051" style="fill: none;" fill="none"></path></g><g><path stroke="rgb(0, 119, 187)" stroke-width="2px" d="M22.337239583333332,152.061678762082L26.8046875,152.061678762082L31.272135416666668,152.061678762082L35.739583333333336,152.061678762082L40.20703125,152.061678762082L44.674479166666664,152.061678762082L49.14192708333333,152.061678762082L53.609375,152.061678762082L58.07682291666667,152.061678762082L62.544270833333336,152.061678762082L67.01171875,152.061678762082L71.47916666666667,152.061678762082L75.94661458333333,152.061678762082L80.4140625,152.061678762082L84.88151041666666,152.061678762082L89.34895833333333,152.061678762082L93.81640625,152.061678762082L98.28385416666666,152.061678762082L102.75130208333334,152.061678762082L107.21875,152.061678762082L111.68619791666667,152.061678762082L116.15364583333334,152.061678762082L120.62109375,152.061678762082L125.08854166666667,152.061678762082L129.55598958333334,152.061678762082L134.0234375,152.061678762082L138.49088541666669,152.061678762082L142.95833333333334,152.061678762082L147.42578125,152.061678762082L151.89322916666666,152.061678762082L156.36067708333334,152.061678762082L160.828125,152.061678762082L165.29557291666669,152.061678762082L169.76302083333331,152.061678762082L174.23046875,152.061678762082L178.69791666666666,152.061678762082L183.16536458333334,152.061678762082L187.6328125,152.061678762082L192.10026041666666,152.061678762082L196.56770833333331,152.061678762082L201.03515625,152.061678762082L205.50260416666669,152.061678762082L209.97005208333334,152.061678762082L214.4375,152.061678762082L218.90494791666666,152.061678762082L223.37239583333334,152.061678762082L227.83984375,152.061678762082L232.30729166666669,152.061678762082L236.77473958333331,152.061678762082L241.2421875,152.061678762082L245.70963541666666,152.061678762082" style="fill: none;" fill="none"></path></g></g></g></g></g></g><g transform="translate(61, 177)" clip-path="url(#clip_1)"><clipPath id="clip_1"><rect width="268" height="23"></rect></clipPath><g><g><line x1="0" y1="0" x2="0" y2="5" style="visibility: inherit;" fill="rgb(0, 0, 0)" stroke="rgb(204, 204, 204)" stroke-width="1px"></line><line x1="22.337239583333332" y1="0" x2="22.337239583333332" y2="5" style="visibility: inherit;" fill="rgb(0, 0, 0)" stroke="rgb(204, 204, 204)" stroke-width="1px"></line><line x1="44.674479166666664" y1="0" x2="44.674479166666664" y2="5" style="visibility: inherit;" fill="rgb(0, 0, 0)" stroke="rgb(204, 204, 204)" stroke-width="1px"></line><line x1="67.01171875" y1="0" x2="67.01171875" y2="5" style="visibility: inherit;" fill="rgb(0, 0, 0)" stroke="rgb(204, 204, 204)" stroke-width="1px"></line><line x1="89.34895833333333" y1="0" x2="89.34895833333333" y2="5" style="visibility: inherit;" fill="rgb(0, 0, 0)" stroke="rgb(204, 204, 204)" stroke-width="1px"></line><line x1="111.68619791666667" y1="0" x2="111.68619791666667" y2="5" style="visibility: inherit;" fill="rgb(0, 0, 0)" stroke="rgb(204, 204, 204)" stroke-width="1px"></line><line x1="134.0234375" y1="0" x2="134.0234375" y2="5" style="visibility: inherit;" fill="rgb(0, 0, 0)" stroke="rgb(204, 204, 204)" stroke-width="1px"></line><line x1="156.36067708333334" y1="0" x2="156.36067708333334" y2="5" style="visibility: inherit;" fill="rgb(0, 0, 0)" stroke="rgb(204, 204, 204)" stroke-width="1px"></line><line x1="178.69791666666666" y1="0" x2="178.69791666666666" y2="5" style="visibility: inherit;" fill="rgb(0, 0, 0)" stroke="rgb(204, 204, 204)" stroke-width="1px"></line><line x1="201.03515625" y1="0" x2="201.03515625" y2="5" style="visibility: inherit;" fill="rgb(0, 0, 0)" stroke="rgb(204, 204, 204)" stroke-width="1px"></line><line x1="223.37239583333334" y1="0" x2="223.37239583333334" y2="5" style="visibility: inherit;" fill="rgb(0, 0, 0)" stroke="rgb(204, 204, 204)" stroke-width="1px"></line><line x1="245.70963541666666" y1="0" x2="245.70963541666666" y2="5" style="visibility: inherit;" fill="rgb(0, 0, 0)" stroke="rgb(204, 204, 204)" stroke-width="1px"></line><line x1="268.046875" y1="0" x2="268.046875" y2="5" style="visibility: inherit;" fill="rgb(0, 0, 0)" stroke="rgb(204, 204, 204)" stroke-width="1px"></line></g><g transform="translate(0, 8)"><text x="0" y="0" dx="0em" dy="0.95em" style="text-anchor: middle; visibility: hidden; font-family: Roboto, sans-serif; font-size: 12px; font-weight: 200;" fill="rgb(33, 33, 33)" stroke="none" stroke-width="1px">-5</text><text x="22.337239583333332" y="0" dx="0em" dy="0.95em" style="text-anchor: middle; visibility: inherit; font-family: Roboto, sans-serif; font-size: 12px; font-weight: 200;" fill="rgb(33, 33, 33)" stroke="none" stroke-width="1px">0</text><text x="44.674479166666664" y="0" dx="0em" dy="0.95em" style="text-anchor: middle; visibility: inherit; font-family: Roboto, sans-serif; font-size: 12px; font-weight: 200;" fill="rgb(33, 33, 33)" stroke="none" stroke-width="1px">5</text><text x="67.01171875" y="0" dx="0em" dy="0.95em" style="text-anchor: middle; visibility: inherit; font-family: Roboto, sans-serif; font-size: 12px; font-weight: 200;" fill="rgb(33, 33, 33)" stroke="none" stroke-width="1px">10</text><text x="89.34895833333333" y="0" dx="0em" dy="0.95em" style="text-anchor: middle; visibility: inherit; font-family: Roboto, sans-serif; font-size: 12px; font-weight: 200;" fill="rgb(33, 33, 33)" stroke="none" stroke-width="1px">15</text><text x="111.68619791666667" y="0" dx="0em" dy="0.95em" style="text-anchor: middle; visibility: inherit; font-family: Roboto, sans-serif; font-size: 12px; font-weight: 200;" fill="rgb(33, 33, 33)" stroke="none" stroke-width="1px">20</text><text x="134.0234375" y="0" dx="0em" dy="0.95em" style="text-anchor: middle; visibility: inherit; font-family: Roboto, sans-serif; font-size: 12px; font-weight: 200;" fill="rgb(33, 33, 33)" stroke="none" stroke-width="1px">25</text><text x="156.36067708333334" y="0" dx="0em" dy="0.95em" style="text-anchor: middle; visibility: inherit; font-family: Roboto, sans-serif; font-size: 12px; font-weight: 200;" fill="rgb(33, 33, 33)" stroke="none" stroke-width="1px">30</text><text x="178.69791666666666" y="0" dx="0em" dy="0.95em" style="text-anchor: middle; visibility: inherit; font-family: Roboto, sans-serif; font-size: 12px; font-weight: 200;" fill="rgb(33, 33, 33)" stroke="none" stroke-width="1px">35</text><text x="201.03515625" y="0" dx="0em" dy="0.95em" style="text-anchor: middle; visibility: inherit; font-family: Roboto, sans-serif; font-size: 12px; font-weight: 200;" fill="rgb(33, 33, 33)" stroke="none" stroke-width="1px">40</text><text x="223.37239583333334" y="0" dx="0em" dy="0.95em" style="text-anchor: middle; visibility: inherit; font-family: Roboto, sans-serif; font-size: 12px; font-weight: 200;" fill="rgb(33, 33, 33)" stroke="none" stroke-width="1px">45</text><text x="245.70963541666666" y="0" dx="0em" dy="0.95em" style="text-anchor: middle; visibility: inherit; font-family: Roboto, sans-serif; font-size: 12px; font-weight: 200;" fill="rgb(33, 33, 33)" stroke="none" stroke-width="1px">50</text><text x="268.046875" y="0" dx="0em" dy="0.95em" style="text-anchor: middle; visibility: hidden; font-family: Roboto, sans-serif; font-size: 12px; font-weight: 200;" fill="rgb(33, 33, 33)" stroke="none" stroke-width="1px">55</text></g><line x1="0" y1="0" x2="268.046875" y2="0" fill="rgb(0, 0, 0)" stroke="rgb(204, 204, 204)" stroke-width="1px"></line></g></g></g></g></svg>