<svg viewBox="0 0 330 200" xmlns="http://www.w3.org/2000/svg"><g><g><g><g><g><line x1="72.34375" y1="177" x2="67.34375" y2="177" style="visibility: inherit;" fill="rgb(0, 0, 0)" stroke="rgb(204, 204, 204)" stroke-width="1px"></line><line x1="72.34375" y1="163.38461538461542" x2="67.34375" y2="163.38461538461542" style="visibility: inherit;" fill="rgb(0, 0, 0)" stroke="rgb(204, 204, 204)" stroke-width="1px"></line><line x1="72.34375" y1="149.76923076923077" x2="67.34375" y2="149.76923076923077" style="visibility: inherit;" fill="rgb(0, 0, 0)" stroke="rgb(204, 204, 204)" stroke-width="1px"></line><line x1="72.34375" y1="136.15384615384616" x2="67.34375" y2="136.15384615384616" style="visibility: inherit;" fill="rgb(0, 0, 0)" stroke="rgb(204, 204, 204)" stroke-width="1px"></line><line x1="72.34375" y1="122.53846153846153" x2="67.34375" y2="122.53846153846153" style="visibility: inherit;" fill="rgb(0, 0, 0)" stroke="rgb(204, 204, 204)" stroke-width="1px"></line><line x1="72.34375" y1="108.9230769230769" x2="67.34375" y2="108.9230769230769" style="visibility: inherit;" fill="rgb(0, 0, 0)" stroke="rgb(204, 204, 204)" stroke-width="1px"></line><line x1="72.34375" y1="95.30769230769232" x2="67.34375" y2="95.30769230769232" style="visibility: inherit;" fill="rgb(0, 0, 0)" stroke="rgb(204, 204, 204)" stroke-width="1px"></line><line x1="72.34375" y1="81.6923076923077" x2="67.34375" y2="81.6923076923077" style="visibility: inherit;" fill="rgb(0, 0, 0)" stroke="rgb(204, 204, 204)" stroke-width="1px"></line><line x1="72.34375" y1="68.07692307692307" x2="67.34375" y2="68.07692307692307" style="visibility: inherit;" fill="rgb(0, 0, 0)" stroke="rgb(204, 204, 204)" stroke-width="1px"></line><line x1="72.34375" y1="54.461538461538446" x2="67.34375" y2="54.461538461538446" style="visibility: inherit;" fill="rgb(0, 0, 0)" stroke="rgb(204, 204, 204)" stroke-width="1px"></line><line x1="72.34375" y1="40.84615384615384" x2="67.34375" y2="40.84615384615384" style="visibility: inherit;" fill="rgb(0, 0, 0)" stroke="rgb(204, 204, 204)" stroke-width="1px"></line><line x1="72.34375" y1="27.230769230769194" x2="67.34375" y2="27.230769230769194" style="visibility: inherit;" fill="rgb(0, 0, 0)" stroke="rgb(204, 204, 204)" stroke-width="1px"></line><line x1="72.34375" y1="13.615384615384587" x2="67.34375" y2="13.615384615384587" style="visibility: inherit;" fill="rgb(0, 0, 0)" stroke="rgb(204, 204, 204)" stroke-width="1px"></line></g><g transform="translate(62.34375, 0)"><text x="0" y="177" dx="0em" dy="0.3em" style="text-anchor: end; visibility: hidden; font-family: Roboto, sans-serif; font-size: 12px; font-weight: 200;" fill="rgb(33, 33, 33)" stroke="none" stroke-width="1px">2.2e-3</text><text x="0" y="163.38461538461542" dx="0em" dy="0.3em" style="text-anchor: end; visibility: inherit; font-family: Roboto, sans-serif; font-size: 12px; font-weight: 200;" fill="rgb(33, 33, 33)" stroke="none" stroke-width="1px">2.4e-3</text><text x="0" y="149.76923076923077" dx="0em" dy="0.3em" style="text-anchor: end; visibility: hidden; font-family: Roboto, sans-serif; font-size: 12px; font-weight: 200;" fill="rgb(33, 33, 33)" stroke="none" stroke-width="1px">2.6e-3</text><text x="0" y="136.15384615384616" dx="0em" dy="0.3em" style="text-anchor: end; visibility: inherit; font-family: Roboto, sans-serif; font-size: 12px; font-weight: 200;" fill="rgb(33, 33, 33)" stroke="none" stroke-width="1px">2.8e-3</text><text x="0" y="122.53846153846153" dx="0em" dy="0.3em" style="text-anchor: end; visibility: hidden; font-family: Roboto, sans-serif; font-size: 12px; font-weight: 200;" fill="rgb(33, 33, 33)" stroke="none" stroke-width="1px">3e-3</text><text x="0" y="108.9230769230769" dx="0em" dy="0.3em" style="text-anchor: end; visibility: inherit; font-family: Roboto, sans-serif; font-size: 12px; font-weight: 200;" fill="rgb(33, 33, 33)" stroke="none" stroke-width="1px">3.2e-3</text><text x="0" y="95.30769230769232" dx="0em" dy="0.3em" style="text-anchor: end; visibility: hidden; font-family: Roboto, sans-serif; font-size: 12px; font-weight: 200;" fill="rgb(33, 33, 33)" stroke="none" stroke-width="1px">3.4e-3</text><text x="0" y="81.6923076923077" dx="0em" dy="0.3em" style="text-anchor: end; visibility: inherit; font-family: Roboto, sans-serif; font-size: 12px; font-weight: 200;" fill="rgb(33, 33, 33)" stroke="none" stroke-width="1px">3.6e-3</text><text x="0" y="68.07692307692307" dx="0em" dy="0.3em" style="text-anchor: end; visibility: hidden; font-family: Roboto, sans-serif; font-size: 12px; font-weight: 200;" fill="rgb(33, 33, 33)" stroke="none" stroke-width="1px">3.8e-3</text><text x="0" y="54.461538461538446" dx="0em" dy="0.3em" style="text-anchor: end; visibility: inherit; font-family: Roboto, sans-serif; font-size: 12px; font-weight: 200;" fill="rgb(33, 33, 33)" stroke="none" stroke-width="1px">4e-3</text><text x="0" y="40.84615384615384" dx="0em" dy="0.3em" style="text-anchor: end; visibility: hidden; font-family: Roboto, sans-serif; font-size: 12px; font-weight: 200;" fill="rgb(33, 33, 33)" stroke="none" stroke-width="1px">4.2e-3</text><text x="0" y="27.230769230769194" dx="0em" dy="0.3em" style="text-anchor: end; visibility: inherit; font-family: Roboto, sans-serif; font-size: 12px; font-weight: 200;" fill="rgb(33, 33, 33)" stroke="none" stroke-width="1px">4.4e-3</text><text x="0" y="13.615384615384587" dx="0em" dy="0.3em" style="text-anchor: end; visibility: hidden; font-family: Roboto, sans-serif; font-size: 12px; font-weight: 200;" fill="rgb(33, 33, 33)" stroke="none" stroke-width="1px">4.6e-3</text></g><line x1="72.34375" y1="0" x2="72.34375" y2="177" fill="rgb(0, 0, 0)" stroke="rgb(204, 204, 204)" stroke-width="1px"></line></g></g><g transform="translate(72, 0)" clip-path="url(#clip_0)"><clipPath id="clip_0"><rect width="257" height="177"></rect></clipPath><g><g><g><line x1="0" y1="0" x2="0" y2="177" fill="rgb(0, 0, 0)" stroke="rgb(66, 66, 66)" stroke-width="1px" opacity="0.25"></line><line x1="21.471354166666664" y1="0" x2="21.471354166666664" y2="177" fill="rgb(0, 0, 0)" stroke="rgb(66, 66, 66)" stroke-width="1px" opacity="0.25"></line><line x1="42.94270833333333" y1="0" x2="42.94270833333333" y2="177" fill="rgb(0, 0, 0)" stroke="rgb(66, 66, 66)" stroke-width="1px" opacity="0.25"></line><line x1="64.4140625" y1="0" x2="64.4140625" y2="177" fill="rgb(0, 0, 0)" stroke="rgb(66, 66, 66)" stroke-width="1px" opacity="0.25"></line><line x1="85.88541666666666" y1="0" x2="85.88541666666666" y2="177" fill="rgb(0, 0, 0)" stroke="rgb(66, 66, 66)" stroke-width="1px" opacity="0.25"></line><line x1="107.35677083333334" y1="0" x2="107.35677083333334" y2="177" fill="rgb(0, 0, 0)" stroke="rgb(66, 66, 66)" stroke-width="1px" opacity="0.25"></line><line x1="128.828125" y1="0" x2="128.828125" y2="177" fill="rgb(0, 0, 0)" stroke="rgb(66, 66, 66)" stroke-width="1px" opacity="0.25"></line><line x1="150.29947916666669" y1="0" x2="150.29947916666669" y2="177" fill="rgb(0, 0, 0)" stroke="rgb(66, 66, 66)" stroke-width="1px" opacity="0.25"></line><line x1="171.77083333333331" y1="0" x2="171.77083333333331" y2="177" fill="rgb(0, 0, 0)" stroke="rgb(66, 66, 66)" stroke-width="1px" opacity="0.25"></line><line x1="193.2421875" y1="0" x2="193.2421875" y2="177" fill="rgb(0, 0, 0)" stroke="rgb(66, 66, 66)" stroke-width="1px" opacity="0.25"></line><line x1="214.71354166666669" y1="0" x2="214.71354166666669" y2="177" fill="rgb(0, 0, 0)" stroke="rgb(66, 66, 66)" stroke-width="1px" opacity="0.25"></line><line x1="236.18489583333331" y1="0" x2="236.18489583333331" y2="177" fill="rgb(0, 0, 0)" stroke="rgb(66, 66, 66)" stroke-width="1px" opacity="0.25"></line><line x1="257.65625" y1="0" x2="257.65625" y2="177" fill="rgb(0, 0, 0)" stroke="rgb(66, 66, 66)" stroke-width="1px" opacity="0.25"></line></g><g><line x1="0" y1="177" x2="257.65625" y2="177" fill="rgb(0, 0, 0)" stroke="rgb(66, 66, 66)" stroke-width="1px" opacity="0.25"></line><line x1="0" y1="163.38461538461542" x2="257.65625" y2="163.38461538461542" fill="rgb(0, 0, 0)" stroke="rgb(66, 66, 66)" stroke-width="1px" opacity="0.25"></line><line x1="0" y1="149.76923076923077" x2="257.65625" y2="149.76923076923077" fill="rgb(0, 0, 0)" stroke="rgb(66, 66, 66)" stroke-width="1px" opacity="0.25"></line><line x1="0" y1="136.15384615384616" x2="257.65625" y2="136.15384615384616" fill="rgb(0, 0, 0)" stroke="rgb(66, 66, 66)" stroke-width="1px" opacity="0.25"></line><line x1="0" y1="122.53846153846153" x2="257.65625" y2="122.53846153846153" fill="rgb(0, 0, 0)" stroke="rgb(66, 66, 66)" stroke-width="1px" opacity="0.25"></line><line x1="0" y1="108.9230769230769" x2="257.65625" y2="108.9230769230769" fill="rgb(0, 0, 0)" stroke="rgb(66, 66, 66)" stroke-width="1px" opacity="0.25"></line><line x1="0" y1="95.30769230769232" x2="257.65625" y2="95.30769230769232" fill="rgb(0, 0, 0)" stroke="rgb(66, 66, 66)" stroke-width="1px" opacity="0.25"></line><line x1="0" y1="81.6923076923077" x2="257.65625" y2="81.6923076923077" fill="rgb(0, 0, 0)" stroke="rgb(66, 66, 66)" stroke-width="1px" opacity="0.25"></line><line x1="0" y1="68.07692307692307" x2="257.65625" y2="68.07692307692307" fill="rgb(0, 0, 0)" stroke="rgb(66, 66, 66)" stroke-width="1px" opacity="0.25"></line><line x1="0" y1="54.461538461538446" x2="257.65625" y2="54.461538461538446" fill="rgb(0, 0, 0)" stroke="rgb(66, 66, 66)" stroke-width="1px" opacity="0.25"></line><line x1="0" y1="40.84615384615384" x2="257.65625" y2="40.84615384615384" fill="rgb(0, 0, 0)" stroke="rgb(66, 66, 66)" stroke-width="1px" opacity="0.25"></line><line x1="0" y1="27.230769230769194" x2="257.65625" y2="27.230769230769194" fill="rgb(0, 0, 0)" stroke="rgb(66, 66, 66)" stroke-width="1px" opacity="0.25"></line><line x1="0" y1="13.615384615384587" x2="257.65625" y2="13.615384615384587" fill="rgb(0, 0, 0)" stroke="rgb(66, 66, 66)" stroke-width="1px" opacity="0.25"></line></g></g></g><g><g><line x1="0" y1="326.7692307692308" x2="257.65625" y2="326.7692307692308" fill="rgb(0, 0, 0)" stroke="rgb(153, 153, 153)" stroke-width="1.5px"></line></g></g><g><g><line x1="21.471354166666664" y1="0" x2="21.471354166666664" y2="177" fill="rgb(0, 0, 0)" stroke="rgb(153, 153, 153)" stroke-width="1.5px"></line></g></g><g><g><g><g><g><path stroke="rgb(187, 187, 187)" stroke-width="2px" d="M21.471354166666664,10.070215183668383L25.765625,9.90280332416294L30.059895833333332,9.797905417875583L34.354166666666664,9.940939371688987L38.6484375,10.086699593239077L42.94270833333333,10.8146447797234L47.236979166666664,11.86739623632566L51.53125,12.614583800904997L55.825520833333336,13.782757825289748L60.119791666666664,15.040835283410066L64.4140625,16.062329763403273L68.70833333333333,17.482651852644377L73.00260416666667,19.41671690631368L77.296875,21.009776587383087L81.59114583333333,23.190505469647714L85.88541666666666,25.050263877098363L90.1796875,26.804363559358368L94.47395833333333,28.677563100766655L98.76822916666667,30.646182012959148L103.0625,32.35837325396443L107.35677083333334,34.16316249565434L111.65104166666667,34.129940070211866L115.9453125,34.228212511883314L120.23958333333333,34.4635591592926L124.53385416666667,34.683626027061365L128.828125,34.76665038987992L133.12239583333334,35.1120304711736L137.41666666666666,35.007988486152406L141.7109375,35.43683674129153L146.00520833333334,35.37305475656801L150.29947916666669,35.428404331780364L154.59375,35.812269169264084L158.88802083333334,35.78345315330302L163.18229166666666,36.04599907650396L167.4765625,36.13799476222348L171.77083333333331,36.32242994468943L176.06510416666666,36.4708847331886L180.359375,36.830625271281356L184.65364583333334,36.64612668724012L188.94791666666666,36.86397449987436L193.2421875,36.95520936669063L197.53645833333334,36.89925747651319L201.83072916666666,36.951595476900145L206.125,37.10971900562825L210.41927083333334,37.03528555625905L214.71354166666669,37.027518863288236L219.0078125,37.16700232888641L223.30208333333334,37.195881746422764L227.59635416666666,37.02387327271009L231.890625,37.05367201308789L236.18489583333331,37.177748895895" style="fill: none;" fill="none"></path></g><g><path stroke="rgb(0, 153, 136)" stroke-width="2px" d="M21.471354166666664,10.070215183668383L25.765625,15.743990453963063L30.059895833333332,35.09532415608945L34.354166666666664,45.62642091111493L38.6484375,47.56612870498344L42.94270833333333,46.399539719980474L47.236979166666664,47.267412183089874L51.53125,50.418724080404395L55.825520833333336,50.81260636678107L60.119791666666664,54.099914643053815L64.4140625,54.55329930782316L68.70833333333333,56.565570204590365L73.00260416666667,55.29528794323021L77.296875,58.04048105014057L81.59114583333333,58.48137560458135L85.88541666666666,58.17641402752351L90.1796875,59.39277324911491L94.47395833333333,59.18652792475544L98.76822916666667,58.371976186449686L103.0625,59.87189895344467L107.35677083333334,58.62647010959111L111.65104166666667,58.950705765531595L115.9453125,59.298907216924874L120.23958333333333,59.29526162634673L124.53385416666667,59.10242573515725L128.828125,59.135838365325554L133.12239583333334,59.31894211471079L137.41666666666666,58.872690127159515L141.7109375,58.922904174774864L146.00520833333334,59.514757879938045L150.29947916666669,59.40526335944348L154.59375,59.71903775546412L158.88802083333334,59.468284525263755L163.18229166666666,59.198098712242555L167.4765625,58.98411839569988L171.77083333333331,59.15355910561405L176.06510416666666,59.29526162634673L180.359375,59.50128504519277L184.65364583333334,59.43804197385905L188.94791666666666,59.36037504415097L193.2421875,59.540118510046824L197.53645833333334,59.53545849426433L201.83072916666666,59.56874432128207L206.125,59.59179079389341L210.41927083333334,59.59987449474059L214.71354166666669,59.617468431878535L219.0078125,59.73523685794608L223.30208333333334,59.71120766091804L227.59635416666666,59.59271011673486L231.890625,59.57169249453222L236.18489583333331,59.75634958251163" style="fill: none;" fill="none"></path></g><g><path stroke="rgb(238, 51, 119)" stroke-width="2px" d="M21.471354166666664,10.070215183668383L25.765625,37.886134696407936L30.059895833333332,72.11068543763115L34.354166666666664,92.80470600007817L38.6484375,131.20418707138072L42.94270833333333,117.14636184146198L47.236979166666664,110.75161555796288L51.53125,111.99869284277352L55.825520833333336,100.50607949796202L60.119791666666664,64.52314946814798L64.4140625,68.03992389572353L68.70833333333333,85.53598485184976L73.00260416666667,153.2538442658977L77.296875,121.20599640690936L81.59114583333333,88.61216588246705L85.88541666666666,132.4933788525657L90.1796875,135.7138143173204L94.47395833333333,135.6991685534326L98.76822916666667,134.48092313497688L103.0625,128.85534891228264L107.35677083333334,125.57569637622399L111.65104166666667,126.06300088376379L115.9453125,126.77693432211304L120.23958333333333,128.37065971972277L124.53385416666667,124.3356408158747L128.828125,125.00164266331836L133.12239583333334,126.7077632034914L137.41666666666666,126.80085256638435L141.7109375,125.24241014541342L146.00520833333334,126.31621092500595L150.29947916666669,125.66455368396754L154.59375,127.91421592894656L158.88802083333334,128.56076934317556L163.18229166666666,127.08317978107011L167.4765625,126.68826721909528L171.77083333333331,127.82857625114804L176.06510416666666,129.0478994963834L180.359375,126.31497459428815L184.65364583333334,125.93779862299562L188.94791666666666,125.78152959034419L193.2421875,128.1228071115911L197.53645833333334,127.20798578199285L201.83072916666666,127.13973398621266L206.125,127.29191361725903L210.41927083333334,127.40654366535063L214.71354166666669,127.39706512984748L219.0078125,127.46230535080227L223.30208333333334,127.41773404338612L227.59635416666666,127.46022894921211L231.890625,127.48343392576163L236.18489583333331,127.77891696731632" style="fill: none;" fill="none"></path></g><g><path stroke="rgb(255, 112, 67)" stroke-width="2px" d="M21.471354166666664,10.070215183668383L25.765625,37.886134696407936L30.059895833333332,72.11068543763115L34.354166666666664,92.80470600007817L38.6484375,131.20418707138072L42.94270833333333,117.14636184146198L47.236979166666664,110.75161555796288L51.53125,111.99869284277352L55.825520833333336,100.50607949796202L60.119791666666664,64.52314946814798L64.4140625,68.03992389572353L68.70833333333333,85.53598485184976L73.00260416666667,153.2538442658977L77.296875,121.20599640690936L81.59114583333333,88.61216588246705L85.88541666666666,132.4933788525657L90.1796875,135.7138143173204L94.47395833333333,135.6991685534326L98.76822916666667,134.48092313497688L103.0625,128.85534891228264L107.35677083333334,125.57569637622399L111.65104166666667,126.06300088376379L115.9453125,126.77693432211304L120.23958333333333,128.37065971972277L124.53385416666667,124.3356408158747L128.828125,125.00164266331836L133.12239583333334,126.7077632034914L137.41666666666666,126.80085256638435L141.7109375,125.24241014541342L146.00520833333334,126.31621092500595L150.29947916666669,125.66455368396754L154.59375,127.91421592894656L158.88802083333334,128.56076934317556L163.18229166666666,127.08317978107011L167.4765625,126.68826721909528L171.77083333333331,127.82857625114804L176.06510416666666,129.0478994963834L180.359375,126.31497459428815L184.65364583333334,125.93779862299562L188.94791666666666,125.78152959034419L193.2421875,128.1228071115911L197.53645833333334,127.20798578199285L201.83072916666666,127.13973398621266L206.125,127.29191361725903L210.41927083333334,127.40654366535063L214.71354166666669,127.39706512984748L219.0078125,127.46230535080227L223.30208333333334,127.41773404338612L227.59635416666666,127.46022894921211L231.890625,127.48343392576163L236.18489583333331,127.77891696731632" style="fill: none;" fill="none"></path></g><g><path stroke="rgb(255, 112, 67)" stroke-width="2px" d="M21.471354166666664,10.070215183668383L25.765625,33.03946467632283L30.059895833333332,41.91790426952333L34.354166666666664,45.76114925856771L38.6484375,51.60224128600494L42.94270833333333,48.04347916520556L47.236979166666664,57.06403338937804L51.53125,57.548326322092436L55.825520833333336,48.75481313896866L60.119791666666664,53.46767413444243L64.4140625,50.7221640196557L68.70833333333333,46.128814993569456L73.00260416666667,48.10548590582148L77.296875,46.54529994153058L81.59114583333333,45.9851153232157L85.88541666666666,43.85209612634317L90.1796875,44.32931978341476L94.47395833333333,46.30044305783049L98.76822916666667,45.40324736615784L103.0625,32.735263918168236L107.35677083333334,38.96567331856258L111.65104166666667,38.7389809861779L115.9453125,38.98260153916017L120.23958333333333,39.101986705397174L124.53385416666667,39.005616310983875L128.828125,38.73254572628781L133.12239583333334,38.63940881221339L137.41666666666666,38.55483111080066L141.7109375,38.33657118792715L146.00520833333334,38.31745561298267L150.29947916666669,38.23103926588708L154.59375,38.12195685563176L158.88802083333334,37.466004157868696L163.18229166666666,37.29786318024762L167.4765625,37.07361180851091L171.77083333333331,37.10455177724359L176.06510416666666,36.940690405953376L180.359375,37.22365163639186L184.65364583333334,37.05668358791332L188.94791666666666,36.65119881326188L193.2421875,36.645334167549215L197.53645833333334,36.49342399319775L201.83072916666666,36.564877568529184L206.125,36.45170575666885L210.41927083333334,36.46023326854291L214.71354166666669,36.51063752088408L219.0078125,36.455826859061524L223.30208333333334,36.60244300187778L227.59635416666666,36.335268763682L231.890625,36.284801109765574L236.18489583333331,36.39800462241354" style="fill: none;" fill="none"></path></g><g><path stroke="rgb(0, 119, 187)" stroke-width="2px" d="M21.471354166666664,24.66582842543719L25.765625,24.66582842543719L30.059895833333332,24.66582842543719L34.354166666666664,24.66582842543719L38.6484375,24.66582842543719L42.94270833333333,24.66582842543719L47.236979166666664,24.66582842543719L51.53125,24.66582842543719L55.825520833333336,24.66582842543719L60.119791666666664,24.66582842543719L64.4140625,24.66582842543719L68.70833333333333,24.66582842543719L73.00260416666667,24.66582842543719L77.296875,24.66582842543719L81.59114583333333,24.66582842543719L85.88541666666666,24.66582842543719L90.1796875,24.66582842543719L94.47395833333333,24.66582842543719L98.76822916666667,24.66582842543719L103.0625,24.66582842543719L107.35677083333334,24.66582842543719L111.65104166666667,24.66582842543719L115.9453125,24.66582842543719L120.23958333333333,24.66582842543719L124.53385416666667,24.66582842543719L128.828125,24.66582842543719L133.12239583333334,24.66582842543719L137.41666666666666,24.66582842543719L141.7109375,24.66582842543719L146.00520833333334,24.66582842543719L150.29947916666669,24.66582842543719L154.59375,24.66582842543719L158.88802083333334,24.66582842543719L163.18229166666666,24.66582842543719L167.4765625,24.66582842543719L171.77083333333331,24.66582842543719L176.06510416666666,24.66582842543719L180.359375,24.66582842543719L184.65364583333334,24.66582842543719L188.94791666666666,24.66582842543719L193.2421875,24.66582842543719L197.53645833333334,24.66582842543719L201.83072916666666,24.66582842543719L206.125,24.66582842543719L210.41927083333334,24.66582842543719L214.71354166666669,24.66582842543719L219.0078125,24.66582842543719L223.30208333333334,24.66582842543719L227.59635416666666,24.66582842543719L231.890625,24.66582842543719L236.18489583333331,24.66582842543719" style="fill: none;" fill="none"></path></g></g></g></g></g></g><g transform="translate(72, 177)" clip-path="url(#clip_1)"><clipPath id="clip_1"><rect width="257" height="23"></rect></clipPath><g><g><line x1="0" y1="0" x2="0" y2="5" style="visibility: inherit;" fill="rgb(0, 0, 0)" stroke="rgb(204, 204, 204)" stroke-width="1px"></line><line x1="21.471354166666664" y1="0" x2="21.471354166666664" y2="5" style="visibility: inherit;" fill="rgb(0, 0, 0)" stroke="rgb(204, 204, 204)" stroke-width="1px"></line><line x1="42.94270833333333" y1="0" x2="42.94270833333333" y2="5" style="visibility: inherit;" fill="rgb(0, 0, 0)" stroke="rgb(204, 204, 204)" stroke-width="1px"></line><line x1="64.4140625" y1="0" x2="64.4140625" y2="5" style="visibility: inherit;" fill="rgb(0, 0, 0)" stroke="rgb(204, 204, 204)" stroke-width="1px"></line><line x1="85.88541666666666" y1="0" x2="85.88541666666666" y2="5" style="visibility: inherit;" fill="rgb(0, 0, 0)" stroke="rgb(204, 204, 204)" stroke-width="1px"></line><line x1="107.35677083333334" y1="0" x2="107.35677083333334" y2="5" style="visibility: inherit;" fill="rgb(0, 0, 0)" stroke="rgb(204, 204, 204)" stroke-width="1px"></line><line x1="128.828125" y1="0" x2="128.828125" y2="5" style="visibility: inherit;" fill="rgb(0, 0, 0)" stroke="rgb(204, 204, 204)" stroke-width="1px"></line><line x1="150.29947916666669" y1="0" x2="150.29947916666669" y2="5" style="visibility: inherit;" fill="rgb(0, 0, 0)" stroke="rgb(204, 204, 204)" stroke-width="1px"></line><line x1="171.77083333333331" y1="0" x2="171.77083333333331" y2="5" style="visibility: inherit;" fill="rgb(0, 0, 0)" stroke="rgb(204, 204, 204)" stroke-width="1px"></line><line x1="193.2421875" y1="0" x2="193.2421875" y2="5" style="visibility: inherit;" fill="rgb(0, 0, 0)" stroke="rgb(204, 204, 204)" stroke-width="1px"></line><line x1="214.71354166666669" y1="0" x2="214.71354166666669" y2="5" style="visibility: inherit;" fill="rgb(0, 0, 0)" stroke="rgb(204, 204, 204)" stroke-width="1px"></line><line x1="236.18489583333331" y1="0" x2="236.18489583333331" y2="5" style="visibility: inherit;" fill="rgb(0, 0, 0)" stroke="rgb(204, 204, 204)" stroke-width="1px"></line><line x1="257.65625" y1="0" x2="257.65625" y2="5" style="visibility: inherit;" fill="rgb(0, 0, 0)" stroke="rgb(204, 204, 204)" stroke-width="1px"></line></g><g transform="translate(0, 8)"><text x="0" y="0" dx="0em" dy="0.95em" style="text-anchor: middle; visibility: hidden; font-family: Roboto, sans-serif; font-size: 12px; font-weight: 200;" fill="rgb(33, 33, 33)" stroke="none" stroke-width="1px">-5</text><text x="21.471354166666664" y="0" dx="0em" dy="0.95em" style="text-anchor: middle; visibility: inherit; font-family: Roboto, sans-serif; font-size: 12px; font-weight: 200;" fill="rgb(33, 33, 33)" stroke="none" stroke-width="1px">0</text><text x="42.94270833333333" y="0" dx="0em" dy="0.95em" style="text-anchor: middle; visibility: inherit; font-family: Roboto, sans-serif; font-size: 12px; font-weight: 200;" fill="rgb(33, 33, 33)" stroke="none" stroke-width="1px">5</text><text x="64.4140625" y="0" dx="0em" dy="0.95em" style="text-anchor: middle; visibility: inherit; font-family: Roboto, sans-serif; font-size: 12px; font-weight: 200;" fill="rgb(33, 33, 33)" stroke="none" stroke-width="1px">10</text><text x="85.88541666666666" y="0" dx="0em" dy="0.95em" style="text-anchor: middle; visibility: inherit; font-family: Roboto, sans-serif; font-size: 12px; font-weight: 200;" fill="rgb(33, 33, 33)" stroke="none" stroke-width="1px">15</text><text x="107.35677083333334" y="0" dx="0em" dy="0.95em" style="text-anchor: middle; visibility: inherit; font-family: Roboto, sans-serif; font-size: 12px; font-weight: 200;" fill="rgb(33, 33, 33)" stroke="none" stroke-width="1px">20</text><text x="128.828125" y="0" dx="0em" dy="0.95em" style="text-anchor: middle; visibility: inherit; font-family: Roboto, sans-serif; font-size: 12px; font-weight: 200;" fill="rgb(33, 33, 33)" stroke="none" stroke-width="1px">25</text><text x="150.29947916666669" y="0" dx="0em" dy="0.95em" style="text-anchor: middle; visibility: inherit; font-family: Roboto, sans-serif; font-size: 12px; font-weight: 200;" fill="rgb(33, 33, 33)" stroke="none" stroke-width="1px">30</text><text x="171.77083333333331" y="0" dx="0em" dy="0.95em" style="text-anchor: middle; visibility: inherit; font-family: Roboto, sans-serif; font-size: 12px; font-weight: 200;" fill="rgb(33, 33, 33)" stroke="none" stroke-width="1px">35</text><text x="193.2421875" y="0" dx="0em" dy="0.95em" style="text-anchor: middle; visibility: inherit; font-family: Roboto, sans-serif; font-size: 12px; font-weight: 200;" fill="rgb(33, 33, 33)" stroke="none" stroke-width="1px">40</text><text x="214.71354166666669" y="0" dx="0em" dy="0.95em" style="text-anchor: middle; visibility: inherit; font-family: Roboto, sans-serif; font-size: 12px; font-weight: 200;" fill="rgb(33, 33, 33)" stroke="none" stroke-width="1px">45</text><text x="236.18489583333331" y="0" dx="0em" dy="0.95em" style="text-anchor: middle; visibility: inherit; font-family: Roboto, sans-serif; font-size: 12px; font-weight: 200;" fill="rgb(33, 33, 33)" stroke="none" stroke-width="1px">50</text><text x="257.65625" y="0" dx="0em" dy="0.95em" style="text-anchor: middle; visibility: hidden; font-family: Roboto, sans-serif; font-size: 12px; font-weight: 200;" fill="rgb(33, 33, 33)" stroke="none" stroke-width="1px">55</text></g><line x1="0" y1="0" x2="257.65625" y2="0" fill="rgb(0, 0, 0)" stroke="rgb(204, 204, 204)" stroke-width="1px"></line></g></g></g></g></svg>