<svg viewBox="0 0 330 200" xmlns="http://www.w3.org/2000/svg"><g><g><g><g><g><line x1="61.953125" y1="177" x2="56.953125" y2="177" style="visibility: inherit;" fill="rgb(0, 0, 0)" stroke="rgb(204, 204, 204)" stroke-width="1px"></line><line x1="61.953125" y1="157.33333333333331" x2="56.953125" y2="157.33333333333331" style="visibility: inherit;" fill="rgb(0, 0, 0)" stroke="rgb(204, 204, 204)" stroke-width="1px"></line><line x1="61.953125" y1="137.66666666666666" x2="56.953125" y2="137.66666666666666" style="visibility: inherit;" fill="rgb(0, 0, 0)" stroke="rgb(204, 204, 204)" stroke-width="1px"></line><line x1="61.953125" y1="118.00000000000001" x2="56.953125" y2="118.00000000000001" style="visibility: inherit;" fill="rgb(0, 0, 0)" stroke="rgb(204, 204, 204)" stroke-width="1px"></line><line x1="61.953125" y1="98.33333333333334" x2="56.953125" y2="98.33333333333334" style="visibility: inherit;" fill="rgb(0, 0, 0)" stroke="rgb(204, 204, 204)" stroke-width="1px"></line><line x1="61.953125" y1="78.66666666666666" x2="56.953125" y2="78.66666666666666" style="visibility: inherit;" fill="rgb(0, 0, 0)" stroke="rgb(204, 204, 204)" stroke-width="1px"></line><line x1="61.953125" y1="59.00000000000001" x2="56.953125" y2="59.00000000000001" style="visibility: inherit;" fill="rgb(0, 0, 0)" stroke="rgb(204, 204, 204)" stroke-width="1px"></line><line x1="61.953125" y1="39.333333333333314" x2="56.953125" y2="39.333333333333314" style="visibility: inherit;" fill="rgb(0, 0, 0)" stroke="rgb(204, 204, 204)" stroke-width="1px"></line><line x1="61.953125" y1="19.666666666666657" x2="56.953125" y2="19.666666666666657" style="visibility: inherit;" fill="rgb(0, 0, 0)" stroke="rgb(204, 204, 204)" stroke-width="1px"></line><line x1="61.953125" y1="0" x2="56.953125" y2="0" style="visibility: inherit;" fill="rgb(0, 0, 0)" stroke="rgb(204, 204, 204)" stroke-width="1px"></line></g><g transform="translate(51.953125, 0)"><text x="0" y="177" dx="0em" dy="0.3em" style="text-anchor: end; visibility: hidden; font-family: Roboto, sans-serif; font-size: 12px; font-weight: 200;" fill="rgb(33, 33, 33)" stroke="none" stroke-width="1px">0</text><text x="0" y="157.33333333333331" dx="0em" dy="0.3em" style="text-anchor: end; visibility: inherit; font-family: Roboto, sans-serif; font-size: 12px; font-weight: 200;" fill="rgb(33, 33, 33)" stroke="none" stroke-width="1px">5e-3</text><text x="0" y="137.66666666666666" dx="0em" dy="0.3em" style="text-anchor: end; visibility: hidden; font-family: Roboto, sans-serif; font-size: 12px; font-weight: 200;" fill="rgb(33, 33, 33)" stroke="none" stroke-width="1px">0.01</text><text x="0" y="118.00000000000001" dx="0em" dy="0.3em" style="text-anchor: end; visibility: inherit; font-family: Roboto, sans-serif; font-size: 12px; font-weight: 200;" fill="rgb(33, 33, 33)" stroke="none" stroke-width="1px">0.015</text><text x="0" y="98.33333333333334" dx="0em" dy="0.3em" style="text-anchor: end; visibility: hidden; font-family: Roboto, sans-serif; font-size: 12px; font-weight: 200;" fill="rgb(33, 33, 33)" stroke="none" stroke-width="1px">0.02</text><text x="0" y="78.66666666666666" dx="0em" dy="0.3em" style="text-anchor: end; visibility: inherit; font-family: Roboto, sans-serif; font-size: 12px; font-weight: 200;" fill="rgb(33, 33, 33)" stroke="none" stroke-width="1px">0.025</text><text x="0" y="59.00000000000001" dx="0em" dy="0.3em" style="text-anchor: end; visibility: hidden; font-family: Roboto, sans-serif; font-size: 12px; font-weight: 200;" fill="rgb(33, 33, 33)" stroke="none" stroke-width="1px">0.03</text><text x="0" y="39.333333333333314" dx="0em" dy="0.3em" style="text-anchor: end; visibility: inherit; font-family: Roboto, sans-serif; font-size: 12px; font-weight: 200;" fill="rgb(33, 33, 33)" stroke="none" stroke-width="1px">0.035</text><text x="0" y="19.666666666666657" dx="0em" dy="0.3em" style="text-anchor: end; visibility: hidden; font-family: Roboto, sans-serif; font-size: 12px; font-weight: 200;" fill="rgb(33, 33, 33)" stroke="none" stroke-width="1px">0.04</text><text x="0" y="0" dx="0em" dy="0.3em" style="text-anchor: end; visibility: hidden; font-family: Roboto, sans-serif; font-size: 12px; font-weight: 200;" fill="rgb(33, 33, 33)" stroke="none" stroke-width="1px">0.045</text></g><line x1="61.953125" y1="0" x2="61.953125" y2="177" fill="rgb(0, 0, 0)" stroke="rgb(204, 204, 204)" stroke-width="1px"></line></g></g><g transform="translate(61, 0)" clip-path="url(#clip_0)"><clipPath id="clip_0"><rect width="268" height="177"></rect></clipPath><g><g><g><line x1="0" y1="0" x2="0" y2="177" fill="rgb(0, 0, 0)" stroke="rgb(66, 66, 66)" stroke-width="1px" opacity="0.25"></line><line x1="22.337239583333332" y1="0" x2="22.337239583333332" y2="177" fill="rgb(0, 0, 0)" stroke="rgb(66, 66, 66)" stroke-width="1px" opacity="0.25"></line><line x1="44.674479166666664" y1="0" x2="44.674479166666664" y2="177" fill="rgb(0, 0, 0)" stroke="rgb(66, 66, 66)" stroke-width="1px" opacity="0.25"></line><line x1="67.01171875" y1="0" x2="67.01171875" y2="177" fill="rgb(0, 0, 0)" stroke="rgb(66, 66, 66)" stroke-width="1px" opacity="0.25"></line><line x1="89.34895833333333" y1="0" x2="89.34895833333333" y2="177" fill="rgb(0, 0, 0)" stroke="rgb(66, 66, 66)" stroke-width="1px" opacity="0.25"></line><line x1="111.68619791666667" y1="0" x2="111.68619791666667" y2="177" fill="rgb(0, 0, 0)" stroke="rgb(66, 66, 66)" stroke-width="1px" opacity="0.25"></line><line x1="134.0234375" y1="0" x2="134.0234375" y2="177" fill="rgb(0, 0, 0)" stroke="rgb(66, 66, 66)" stroke-width="1px" opacity="0.25"></line><line x1="156.36067708333334" y1="0" x2="156.36067708333334" y2="177" fill="rgb(0, 0, 0)" stroke="rgb(66, 66, 66)" stroke-width="1px" opacity="0.25"></line><line x1="178.69791666666666" y1="0" x2="178.69791666666666" y2="177" fill="rgb(0, 0, 0)" stroke="rgb(66, 66, 66)" stroke-width="1px" opacity="0.25"></line><line x1="201.03515625" y1="0" x2="201.03515625" y2="177" fill="rgb(0, 0, 0)" stroke="rgb(66, 66, 66)" stroke-width="1px" opacity="0.25"></line><line x1="223.37239583333334" y1="0" x2="223.37239583333334" y2="177" fill="rgb(0, 0, 0)" stroke="rgb(66, 66, 66)" stroke-width="1px" opacity="0.25"></line><line x1="245.70963541666666" y1="0" x2="245.70963541666666" y2="177" fill="rgb(0, 0, 0)" stroke="rgb(66, 66, 66)" stroke-width="1px" opacity="0.25"></line><line x1="268.046875" y1="0" x2="268.046875" y2="177" fill="rgb(0, 0, 0)" stroke="rgb(66, 66, 66)" stroke-width="1px" opacity="0.25"></line></g><g><line x1="0" y1="177" x2="268.046875" y2="177" fill="rgb(0, 0, 0)" stroke="rgb(66, 66, 66)" stroke-width="1px" opacity="0.25"></line><line x1="0" y1="157.33333333333331" x2="268.046875" y2="157.33333333333331" fill="rgb(0, 0, 0)" stroke="rgb(66, 66, 66)" stroke-width="1px" opacity="0.25"></line><line x1="0" y1="137.66666666666666" x2="268.046875" y2="137.66666666666666" fill="rgb(0, 0, 0)" stroke="rgb(66, 66, 66)" stroke-width="1px" opacity="0.25"></line><line x1="0" y1="118.00000000000001" x2="268.046875" y2="118.00000000000001" fill="rgb(0, 0, 0)" stroke="rgb(66, 66, 66)" stroke-width="1px" opacity="0.25"></line><line x1="0" y1="98.33333333333334" x2="268.046875" y2="98.33333333333334" fill="rgb(0, 0, 0)" stroke="rgb(66, 66, 66)" stroke-width="1px" opacity="0.25"></line><line x1="0" y1="78.66666666666666" x2="268.046875" y2="78.66666666666666" fill="rgb(0, 0, 0)" stroke="rgb(66, 66, 66)" stroke-width="1px" opacity="0.25"></line><line x1="0" y1="59.00000000000001" x2="268.046875" y2="59.00000000000001" fill="rgb(0, 0, 0)" stroke="rgb(66, 66, 66)" stroke-width="1px" opacity="0.25"></line><line x1="0" y1="39.333333333333314" x2="268.046875" y2="39.333333333333314" fill="rgb(0, 0, 0)" stroke="rgb(66, 66, 66)" stroke-width="1px" opacity="0.25"></line><line x1="0" y1="19.666666666666657" x2="268.046875" y2="19.666666666666657" fill="rgb(0, 0, 0)" stroke="rgb(66, 66, 66)" stroke-width="1px" opacity="0.25"></line><line x1="0" y1="0" x2="268.046875" y2="0" fill="rgb(0, 0, 0)" stroke="rgb(66, 66, 66)" stroke-width="1px" opacity="0.25"></line></g></g></g><g><g><line x1="0" y1="177" x2="268.046875" y2="177" fill="rgb(0, 0, 0)" stroke="rgb(153, 153, 153)" stroke-width="1.5px"></line></g></g><g><g><line x1="22.337239583333332" y1="0" x2="22.337239583333332" y2="177" fill="rgb(0, 0, 0)" stroke="rgb(153, 153, 153)" stroke-width="1.5px"></line></g></g><g><g><g><g><g><path stroke="rgb(187, 187, 187)" stroke-width="2px" d="M22.337239583333332,85.84176455438136L26.8046875,73.07469191153845L31.272135416666668,79.3519404232502L35.739583333333336,84.53171555697917L40.20703125,84.26004516084988L44.674479166666664,85.09922615687051L49.14192708333333,86.54478432734807L53.609375,88.54399154086909L58.07682291666667,91.42755435903867L62.544270833333336,93.5462845315536L67.01171875,96.19838426013787L71.47916666666667,99.6694367825985L75.94661458333333,104.1287553012371L80.4140625,107.6118084738652L84.88151041666666,111.66132457057635L89.34895833333333,115.87785704185565L93.81640625,119.3564520974954L98.28385416666666,120.96627924094598L102.75130208333334,121.10885839412609L107.21875,120.11499502509831L111.68619791666667,119.52337322880825L116.15364583333334,119.282957273225L120.62109375,119.34231213728587L125.08854166666667,119.30988913526137L129.55598958333334,119.36852234850328L134.0234375,119.24470977981885L138.49088541666669,119.37245662758747L142.95833333333334,119.18899980187415L147.42578125,119.4412808691462L151.89322916666666,119.14556521425644L156.36067708333334,119.20078798631826L160.828125,119.34360891083875L165.29557291666669,119.18789717803398L169.76302083333331,119.33213209857543L174.23046875,119.29670160760482L178.69791666666666,119.32659333695968L183.16536458333334,119.35671951125066L187.6328125,119.5092735638221L192.10026041666666,119.29233507066965L196.56770833333331,119.43948590010405L201.03515625,119.40821680674951L205.50260416666669,119.38370265811682L209.97005208333334,119.38065487394731L214.4375,119.430327894787L218.90494791666666,119.41129389653602L223.37239583333334,119.39121588567892L227.83984375,119.50347837805748L232.30729166666669,119.6543217152357L236.77473958333331,119.40672954668602L241.2421875,119.31669170161089L245.70963541666666,119.51644611358641" style="fill: none;" fill="none"></path></g><g><path stroke="rgb(0, 153, 136)" stroke-width="2px" d="M22.337239583333332,85.84176455438136L26.8046875,103.43353814880054L31.272135416666668,117.47154045353332L35.739583333333336,122.5272026360035L40.20703125,126.68325564016898L44.674479166666664,129.53831141938767L49.14192708333333,132.0472825144728L53.609375,131.81047847618657L58.07682291666667,134.32947575549284L62.544270833333336,133.49933187911907L67.01171875,136.41979046911L71.47916666666667,136.8907756929596L75.94661458333333,137.68536452949047L80.4140625,140.19198751201233L84.88151041666666,139.36021717389426L89.34895833333333,139.57199421525002L93.81640625,143.3705479974548L98.28385416666666,141.70802569140992L102.75130208333334,139.08123868952194L107.21875,142.88300143678984L111.68619791666667,140.3143238102396L116.15364583333334,140.98635289321342L120.62109375,141.59351765612763L125.08854166666667,141.79329404731592L129.55598958333334,141.02479453633228L134.0234375,142.05520933618146L138.49088541666669,142.52461571991444L142.95833333333334,140.79791777580976L147.42578125,140.65273408591747L151.89322916666666,142.9063140551249L156.36067708333334,143.1401802053054L160.828125,144.0442035421729L165.29557291666669,142.51871796449024L169.76302083333331,142.1662922774752L174.23046875,142.5058967570464L178.69791666666666,142.9401547163725L183.16536458333334,142.51893775661787L187.6328125,142.79895292719203L192.10026041666666,143.54565272231898L196.56770833333331,144.38037560135126L201.03515625,143.51791129261255L205.50260416666669,143.4237999667724L209.97005208333334,143.29770155996084L214.4375,143.36658807595572L218.90494791666666,143.32651264468828L223.37239583333334,143.3015735646089L227.83984375,143.35625418275595L232.30729166666669,143.47297112892073L236.77473958333331,143.39475443710884L241.2421875,143.3602104410529L245.70963541666666,143.42422123501697" style="fill: none;" fill="none"></path></g><g><path stroke="rgb(238, 51, 119)" stroke-width="2px" d="M22.337239583333332,85.84176455438136L26.8046875,135.58892494191727L31.272135416666668,129.40933739890656L35.739583333333336,121.00299185266097L40.20703125,108.37253100673358L44.674479166666664,79.56576885779698L49.14192708333333,116.68800716102123L53.609375,111.63015804688135L58.07682291666667,112.33180778225262L62.544270833333336,114.30500626067321L67.01171875,93.14491480092208L71.47916666666667,118.59740731120108L75.94661458333333,16.581345518430073L80.4140625,45.7185284992059L84.88151041666666,96.42921727895737L89.34895833333333,64.59832791984081L93.81640625,65.53966829677424L98.28385416666666,49.49776621659597L102.75130208333334,44.11069047451018L107.21875,58.24067944784959L111.68619791666667,71.62380011876425L116.15364583333334,72.16122117638587L120.62109375,71.17444976667562L125.08854166666667,68.97068934639294L129.55598958333334,73.20722656448683L134.0234375,71.91536170244217L138.49088541666669,69.70866339405377L142.95833333333334,69.62459290524323L147.42578125,71.98472809791565L151.89322916666666,70.18947332600752L156.36067708333334,71.47992419203123L160.828125,68.91454711059728L165.29557291666669,67.69900872806707L169.76302083333331,69.86648146808147L174.23046875,70.13860610127449L178.69791666666666,68.71214786668618L183.16536458333334,66.06242921948433L187.6328125,69.50421275695165L192.10026041666666,70.13484032948811L196.56770833333331,69.88964755833149L201.03515625,65.21595112482707L205.50260416666669,63.619483679533L209.97005208333334,63.03971600532532L214.4375,62.14894979695478L218.90494791666666,61.0503554791212L223.37239583333334,60.7172092248996L227.83984375,60.16791939238706L232.30729166666669,59.69004734853904L236.77473958333331,59.33973532915115L241.2421875,58.83935657143593L245.70963541666666,57.89585490524769" style="fill: none;" fill="none"></path></g><g><path stroke="rgb(255, 112, 67)" stroke-width="2px" d="M22.337239583333332,85.84176455438136L26.8046875,135.58892494191727L31.272135416666668,129.40933739890656L35.739583333333336,121.00299185266097L40.20703125,108.37253100673358L44.674479166666664,79.56576885779698L49.14192708333333,116.68800716102123L53.609375,111.63015804688135L58.07682291666667,112.33180778225262L62.544270833333336,114.30500626067321L67.01171875,93.14491480092208L71.47916666666667,118.59740731120108L75.94661458333333,16.581345518430073L80.4140625,45.7185284992059L84.88151041666666,96.42921727895737L89.34895833333333,64.59832791984081L93.81640625,65.53966829677424L98.28385416666666,49.49776621659597L102.75130208333334,44.11069047451018L107.21875,58.24067944784959L111.68619791666667,71.62380011876425L116.15364583333334,72.16122117638587L120.62109375,71.17444976667562L125.08854166666667,68.97068934639294L129.55598958333334,73.20722656448683L134.0234375,71.91536170244217L138.49088541666669,69.70866339405377L142.95833333333334,69.62459290524323L147.42578125,71.98472809791565L151.89322916666666,70.18947332600752L156.36067708333334,71.47992419203123L160.828125,68.91454711059728L165.29557291666669,67.69900872806707L169.76302083333331,69.86648146808147L174.23046875,70.13860610127449L178.69791666666666,68.71214786668618L183.16536458333334,66.06242921948433L187.6328125,69.50421275695165L192.10026041666666,70.13484032948811L196.56770833333331,69.88964755833149L201.03515625,65.21595112482707L205.50260416666669,63.619483679533L209.97005208333334,63.03971600532532L214.4375,62.14894979695478L218.90494791666666,61.0503554791212L223.37239583333334,60.7172092248996L227.83984375,60.16791939238706L232.30729166666669,59.69004734853904L236.77473958333331,59.33973532915115L241.2421875,58.83935657143593L245.70963541666666,57.89585490524769" style="fill: none;" fill="none"></path></g><g><path stroke="rgb(255, 112, 67)" stroke-width="2px" d="M22.337239583333332,85.84176455438136L26.8046875,138.98019292205572L31.272135416666668,140.48355275889236L35.739583333333336,144.7337427313129L40.20703125,145.54444599399963L44.674479166666664,148.08390225718418L49.14192708333333,148.11950125545263L53.609375,146.28434871758023L58.07682291666667,150.24572267631692L62.544270833333336,150.18778913468122L67.01171875,151.14830454314747L71.47916666666667,152.2342882876595L75.94661458333333,151.68753339101872L80.4140625,152.53433934226632L84.88151041666666,153.0185212517778L89.34895833333333,152.90729910880327L93.81640625,152.25985927010575L98.28385416666666,152.30123880133033L102.75130208333334,152.7438195558886L107.21875,153.1398226954043L111.68619791666667,152.2782686923941L116.15364583333334,152.45514274388552L120.62109375,152.739268027246L125.08854166666667,152.89278916517895L129.55598958333334,153.14699158196646L134.0234375,153.20370344569287L138.49088541666669,153.41825719426075L142.95833333333334,153.2827718319992L147.42578125,152.8085025474429L151.89322916666666,153.20543247709674L156.36067708333334,153.22663142780465L160.828125,153.35914226993918L165.29557291666669,153.02167343720794L169.76302083333331,152.97593652705353L174.23046875,153.01181576028466L178.69791666666666,152.9485650807619L183.16536458333334,153.2669706096252L187.6328125,153.26177802061042L192.10026041666666,153.37754986062646L196.56770833333331,153.17278418814143L201.03515625,153.36199224119386L205.50260416666669,153.33424897988638L209.97005208333334,153.2574096520742L214.4375,153.29052316769958L218.90494791666666,153.30156955371302L223.37239583333334,153.27119611327848L227.83984375,153.30924945697188L232.30729166666669,153.29194082692266L236.77473958333331,153.26934619620442L241.2421875,153.27053490529457L245.70963541666666,153.27734479804835" style="fill: none;" fill="none"></path></g><g><path stroke="rgb(0, 119, 187)" stroke-width="2px" d="M22.337239583333332,152.90446195875606L26.8046875,152.90446195875606L31.272135416666668,152.90446195875606L35.739583333333336,152.90446195875606L40.20703125,152.90446195875606L44.674479166666664,152.90446195875606L49.14192708333333,152.90446195875606L53.609375,152.90446195875606L58.07682291666667,152.90446195875606L62.544270833333336,152.90446195875606L67.01171875,152.90446195875606L71.47916666666667,152.90446195875606L75.94661458333333,152.90446195875606L80.4140625,152.90446195875606L84.88151041666666,152.90446195875606L89.34895833333333,152.90446195875606L93.81640625,152.90446195875606L98.28385416666666,152.90446195875606L102.75130208333334,152.90446195875606L107.21875,152.90446195875606L111.68619791666667,152.90446195875606L116.15364583333334,152.90446195875606L120.62109375,152.90446195875606L125.08854166666667,152.90446195875606L129.55598958333334,152.90446195875606L134.0234375,152.90446195875606L138.49088541666669,152.90446195875606L142.95833333333334,152.90446195875606L147.42578125,152.90446195875606L151.89322916666666,152.90446195875606L156.36067708333334,152.90446195875606L160.828125,152.90446195875606L165.29557291666669,152.90446195875606L169.76302083333331,152.90446195875606L174.23046875,152.90446195875606L178.69791666666666,152.90446195875606L183.16536458333334,152.90446195875606L187.6328125,152.90446195875606L192.10026041666666,152.90446195875606L196.56770833333331,152.90446195875606L201.03515625,152.90446195875606L205.50260416666669,152.90446195875606L209.97005208333334,152.90446195875606L214.4375,152.90446195875606L218.90494791666666,152.90446195875606L223.37239583333334,152.90446195875606L227.83984375,152.90446195875606L232.30729166666669,152.90446195875606L236.77473958333331,152.90446195875606L241.2421875,152.90446195875606L245.70963541666666,152.90446195875606" style="fill: none;" fill="none"></path></g></g></g></g></g></g><g transform="translate(61, 177)" clip-path="url(#clip_1)"><clipPath id="clip_1"><rect width="268" height="23"></rect></clipPath><g><g><line x1="0" y1="0" x2="0" y2="5" style="visibility: inherit;" fill="rgb(0, 0, 0)" stroke="rgb(204, 204, 204)" stroke-width="1px"></line><line x1="22.337239583333332" y1="0" x2="22.337239583333332" y2="5" style="visibility: inherit;" fill="rgb(0, 0, 0)" stroke="rgb(204, 204, 204)" stroke-width="1px"></line><line x1="44.674479166666664" y1="0" x2="44.674479166666664" y2="5" style="visibility: inherit;" fill="rgb(0, 0, 0)" stroke="rgb(204, 204, 204)" stroke-width="1px"></line><line x1="67.01171875" y1="0" x2="67.01171875" y2="5" style="visibility: inherit;" fill="rgb(0, 0, 0)" stroke="rgb(204, 204, 204)" stroke-width="1px"></line><line x1="89.34895833333333" y1="0" x2="89.34895833333333" y2="5" style="visibility: inherit;" fill="rgb(0, 0, 0)" stroke="rgb(204, 204, 204)" stroke-width="1px"></line><line x1="111.68619791666667" y1="0" x2="111.68619791666667" y2="5" style="visibility: inherit;" fill="rgb(0, 0, 0)" stroke="rgb(204, 204, 204)" stroke-width="1px"></line><line x1="134.0234375" y1="0" x2="134.0234375" y2="5" style="visibility: inherit;" fill="rgb(0, 0, 0)" stroke="rgb(204, 204, 204)" stroke-width="1px"></line><line x1="156.36067708333334" y1="0" x2="156.36067708333334" y2="5" style="visibility: inherit;" fill="rgb(0, 0, 0)" stroke="rgb(204, 204, 204)" stroke-width="1px"></line><line x1="178.69791666666666" y1="0" x2="178.69791666666666" y2="5" style="visibility: inherit;" fill="rgb(0, 0, 0)" stroke="rgb(204, 204, 204)" stroke-width="1px"></line><line x1="201.03515625" y1="0" x2="201.03515625" y2="5" style="visibility: inherit;" fill="rgb(0, 0, 0)" stroke="rgb(204, 204, 204)" stroke-width="1px"></line><line x1="223.37239583333334" y1="0" x2="223.37239583333334" y2="5" style="visibility: inherit;" fill="rgb(0, 0, 0)" stroke="rgb(204, 204, 204)" stroke-width="1px"></line><line x1="245.70963541666666" y1="0" x2="245.70963541666666" y2="5" style="visibility: inherit;" fill="rgb(0, 0, 0)" stroke="rgb(204, 204, 204)" stroke-width="1px"></line><line x1="268.046875" y1="0" x2="268.046875" y2="5" style="visibility: inherit;" fill="rgb(0, 0, 0)" stroke="rgb(204, 204, 204)" stroke-width="1px"></line></g><g transform="translate(0, 8)"><text x="0" y="0" dx="0em" dy="0.95em" style="text-anchor: middle; visibility: hidden; font-family: Roboto, sans-serif; font-size: 12px; font-weight: 200;" fill="rgb(33, 33, 33)" stroke="none" stroke-width="1px">-5</text><text x="22.337239583333332" y="0" dx="0em" dy="0.95em" style="text-anchor: middle; visibility: inherit; font-family: Roboto, sans-serif; font-size: 12px; font-weight: 200;" fill="rgb(33, 33, 33)" stroke="none" stroke-width="1px">0</text><text x="44.674479166666664" y="0" dx="0em" dy="0.95em" style="text-anchor: middle; visibility: inherit; font-family: Roboto, sans-serif; font-size: 12px; font-weight: 200;" fill="rgb(33, 33, 33)" stroke="none" stroke-width="1px">5</text><text x="67.01171875" y="0" dx="0em" dy="0.95em" style="text-anchor: middle; visibility: inherit; font-family: Roboto, sans-serif; font-size: 12px; font-weight: 200;" fill="rgb(33, 33, 33)" stroke="none" stroke-width="1px">10</text><text x="89.34895833333333" y="0" dx="0em" dy="0.95em" style="text-anchor: middle; visibility: inherit; font-family: Roboto, sans-serif; font-size: 12px; font-weight: 200;" fill="rgb(33, 33, 33)" stroke="none" stroke-width="1px">15</text><text x="111.68619791666667" y="0" dx="0em" dy="0.95em" style="text-anchor: middle; visibility: inherit; font-family: Roboto, sans-serif; font-size: 12px; font-weight: 200;" fill="rgb(33, 33, 33)" stroke="none" stroke-width="1px">20</text><text x="134.0234375" y="0" dx="0em" dy="0.95em" style="text-anchor: middle; visibility: inherit; font-family: Roboto, sans-serif; font-size: 12px; font-weight: 200;" fill="rgb(33, 33, 33)" stroke="none" stroke-width="1px">25</text><text x="156.36067708333334" y="0" dx="0em" dy="0.95em" style="text-anchor: middle; visibility: inherit; font-family: Roboto, sans-serif; font-size: 12px; font-weight: 200;" fill="rgb(33, 33, 33)" stroke="none" stroke-width="1px">30</text><text x="178.69791666666666" y="0" dx="0em" dy="0.95em" style="text-anchor: middle; visibility: inherit; font-family: Roboto, sans-serif; font-size: 12px; font-weight: 200;" fill="rgb(33, 33, 33)" stroke="none" stroke-width="1px">35</text><text x="201.03515625" y="0" dx="0em" dy="0.95em" style="text-anchor: middle; visibility: inherit; font-family: Roboto, sans-serif; font-size: 12px; font-weight: 200;" fill="rgb(33, 33, 33)" stroke="none" stroke-width="1px">40</text><text x="223.37239583333334" y="0" dx="0em" dy="0.95em" style="text-anchor: middle; visibility: inherit; font-family: Roboto, sans-serif; font-size: 12px; font-weight: 200;" fill="rgb(33, 33, 33)" stroke="none" stroke-width="1px">45</text><text x="245.70963541666666" y="0" dx="0em" dy="0.95em" style="text-anchor: middle; visibility: inherit; font-family: Roboto, sans-serif; font-size: 12px; font-weight: 200;" fill="rgb(33, 33, 33)" stroke="none" stroke-width="1px">50</text><text x="268.046875" y="0" dx="0em" dy="0.95em" style="text-anchor: middle; visibility: hidden; font-family: Roboto, sans-serif; font-size: 12px; font-weight: 200;" fill="rgb(33, 33, 33)" stroke="none" stroke-width="1px">55</text></g><line x1="0" y1="0" x2="268.046875" y2="0" fill="rgb(0, 0, 0)" stroke="rgb(204, 204, 204)" stroke-width="1px"></line></g></g></g></g></svg>